
<svg width="162" height="162" viewBox="0 0 162 162" fill="none" xmlns="http://www.w3.org/2000/svg">
<circle cx="81" cy="81" r="81" fill="url(#paint0_linear_5_17)"/>
<path d="M49.12 129.48C48.96 129.427 48.7867 129.387 48.6 129.36C48.44 129.333 48.2667 129.293 48.08 129.24L48.28 129.36C48.1733 129.36 48.0667 129.333 47.96 129.28C47.88 129.253 47.8 129.253 47.72 129.28L46.96 129.08L46.92 129.04C46.8133 128.933 46.7067 128.84 46.6 128.76C46.4933 128.68 46.3467 128.667 46.16 128.72C46.2133 128.747 46.2667 128.76 46.32 128.76C46.3733 128.76 46.4133 128.787 46.44 128.84H46.36C46.2533 128.84 46.1733 128.813 46.12 128.76C46.0667 128.707 46 128.653 45.92 128.6C45.52 128.36 45.16 128.08 44.84 127.76V127.72C44.7333 127.587 44.6533 127.453 44.6 127.32C44.5467 127.16 44.4533 127.04 44.32 126.96H44.28C44.2 126.8 44.12 126.627 44.04 126.44C43.9867 126.227 43.9333 126.027 43.88 125.84C43.88 125.76 43.8667 125.693 43.84 125.64C43.84 125.56 43.84 125.48 43.84 125.4C43.84 125.293 43.84 125.2 43.84 125.12C43.8667 125.013 43.8933 124.907 43.92 124.8C43.7867 124.853 43.72 124.813 43.72 124.68C43.6933 124.387 43.68 124.093 43.68 123.8C43.7067 123.507 43.7467 123.187 43.8 122.84L43.92 122.24C43.9733 122.107 44.0533 122.013 44.16 121.96C44.2667 121.907 44.3067 121.813 44.28 121.68C44.2533 121.68 44.2267 121.693 44.2 121.72C44.1733 121.747 44.1333 121.76 44.08 121.76C44.08 121.76 44.0667 121.76 44.04 121.76C44.04 121.733 44.04 121.707 44.04 121.68H44.08V121.64C44.0533 121.613 44.0533 121.6 44.08 121.6C44.1067 121.6 44.1067 121.587 44.08 121.56V121.52C44.08 121.387 44.12 121.253 44.2 121.12C44.28 120.96 44.3467 120.8 44.4 120.64C44.4533 120.507 44.5333 120.387 44.64 120.28C44.7733 120.173 44.8133 120.04 44.76 119.88H44.64C44.72 119.827 44.76 119.773 44.76 119.72L44.8 119.68L45.2 118.84H45.24C45.4533 118.84 45.5467 118.787 45.52 118.68C45.52 118.573 45.52 118.453 45.52 118.32V118.28L45.84 117.76C46 117.68 46.1067 117.56 46.16 117.4C46.2133 117.213 46.2933 117.067 46.4 116.96C46.4533 116.827 46.5333 116.72 46.64 116.64C46.7467 116.533 46.84 116.413 46.92 116.28C47.08 116.067 47.24 115.867 47.4 115.68C47.56 115.467 47.7333 115.267 47.92 115.08C48.0533 115.027 48.1467 114.96 48.2 114.88C48.2533 114.8 48.32 114.707 48.4 114.6C48.4 114.573 48.4 114.56 48.4 114.56C48.4267 114.56 48.44 114.547 48.44 114.52C48.52 114.413 48.6267 114.347 48.76 114.32C48.8933 114.293 48.9867 114.213 49.04 114.08C49.0933 113.947 49.1733 113.827 49.28 113.72C49.4933 113.507 49.72 113.307 49.96 113.12C50.2 112.907 50.44 112.707 50.68 112.52C50.84 112.493 50.96 112.467 51.04 112.44C51.12 112.387 51.16 112.28 51.16 112.12H51.2C51.4933 111.907 51.7867 111.707 52.08 111.52C52.3733 111.333 52.6533 111.16 52.92 111C53.1333 110.867 53.3333 110.747 53.52 110.64C53.7333 110.533 53.9333 110.427 54.12 110.32H54.24C54.3467 110.32 54.4267 110.293 54.48 110.24C54.5333 110.187 54.6 110.12 54.68 110.04H54.72C56.6933 109.16 58.52 108.72 60.2 108.72C60.4133 108.72 60.64 108.733 60.88 108.76C61.12 108.76 61.3467 108.773 61.56 108.8C62.8133 108.96 63.76 109.373 64.4 110.04C65.04 110.68 65.36 111.387 65.36 112.16C65.36 112.427 65.32 112.707 65.24 113C65.5067 112.813 65.7467 112.627 65.96 112.44C66.1733 112.253 66.3467 112.04 66.48 111.8C66.5333 111.72 66.6 111.693 66.68 111.72C66.76 111.72 66.7733 111.76 66.72 111.84C66.64 112.08 66.4667 112.347 66.2 112.64C65.9333 112.907 65.64 113.147 65.32 113.36C65.32 113.387 65.2533 113.48 65.12 113.64C64.9867 113.773 64.9333 113.867 64.96 113.92C64.96 113.947 64.92 114 64.84 114.08C64.7867 114.133 64.7467 114.187 64.72 114.24L64.44 114.6C64.44 114.6 64.44 114.613 64.44 114.64C64.44 114.64 64.4267 114.653 64.4 114.68C64.4 114.68 64.3467 114.707 64.24 114.76C64.1867 114.813 64.1067 114.907 64 115.04C63.92 115.173 63.8133 115.267 63.68 115.32L63.52 115.4C63.4933 115.427 63.4667 115.467 63.44 115.52C63.4133 115.547 63.3733 115.587 63.32 115.64C63.2133 115.747 63.0133 115.88 62.72 116.04C62.4533 116.173 62.2533 116.293 62.12 116.4C62.12 116.4 62.0933 116.413 62.04 116.44C61.9867 116.467 61.92 116.507 61.84 116.56L61.72 116.6C61.6933 116.6 61.64 116.627 61.56 116.68C61.5067 116.733 61.4667 116.773 61.44 116.8C61.4133 116.827 61.3733 116.84 61.32 116.84C61.2933 116.84 61.2533 116.867 61.2 116.92C61.1733 116.947 61.1333 116.96 61.08 116.96C61.0267 116.96 60.9733 116.987 60.92 117.04L60.32 117.2C60.2933 117.227 60.2133 117.28 60.08 117.36C59.9733 117.413 59.9067 117.44 59.88 117.44H59.8C59.7733 117.44 59.7467 117.453 59.72 117.48C59.72 117.507 59.6933 117.52 59.64 117.52C59.6133 117.547 59.5733 117.56 59.52 117.56C59.4933 117.533 59.4533 117.533 59.4 117.56C59.3733 117.56 59.3333 117.587 59.28 117.64C59.2533 117.667 59.2267 117.68 59.2 117.68H59.08L58.84 117.8C58.7333 117.827 58.6133 117.84 58.48 117.84C58.3733 117.84 58.2533 117.867 58.12 117.92C58.0933 117.92 58.04 117.907 57.96 117.88C57.9067 117.853 57.8533 117.84 57.8 117.84C57.56 117.92 57.32 117.96 57.08 117.96C57.0533 117.987 57.0267 117.987 57 117.96C57 117.933 56.9867 117.92 56.96 117.92C56.9333 117.92 56.92 117.933 56.92 117.96C56.92 117.96 56.9067 117.96 56.88 117.96C56.88 117.96 56.84 117.96 56.76 117.96C56.7067 117.933 56.6667 117.907 56.64 117.88H56.6C56.5467 117.88 56.5067 117.867 56.48 117.84C56.4533 117.813 56.4267 117.8 56.4 117.8C56.4 117.8 56.4 117.813 56.4 117.84C56.4 117.84 56.3867 117.84 56.36 117.84C56.3333 117.84 56.3067 117.827 56.28 117.8C56.2267 117.8 56.1333 117.787 56 117.76C55.8933 117.707 55.8267 117.667 55.8 117.64C55.72 117.667 55.64 117.64 55.56 117.56C55.5067 117.507 55.48 117.493 55.48 117.52L55.2 117.4C55.2 117.373 55.1867 117.36 55.16 117.36C55.16 117.333 55.16 117.32 55.16 117.32H55.08C55.0267 117.267 54.9867 117.24 54.96 117.24C54.9333 117.16 54.9067 117.107 54.88 117.08C54.8533 117.053 54.8133 117.013 54.76 116.96C54.76 116.853 54.7467 116.8 54.72 116.8C54.72 116.747 54.68 116.667 54.6 116.56C54.5467 116.427 54.52 116.307 54.52 116.2L54.48 116.16C54.3733 116.053 54.3467 115.867 54.4 115.6C54.4267 115.467 54.4133 115.413 54.36 115.44C54.3067 115.44 54.32 115.36 54.4 115.2L54.6 114.8C54.6 114.773 54.5867 114.76 54.56 114.76C54.5333 114.733 54.5333 114.707 54.56 114.68C54.56 114.653 54.56 114.64 54.56 114.64C54.5867 114.613 54.6 114.587 54.6 114.56C54.6267 114.533 54.64 114.48 54.64 114.4C54.64 114.347 54.6533 114.307 54.68 114.28C54.68 114.253 54.7067 114.2 54.76 114.12C54.84 114.013 54.8933 113.947 54.92 113.92L55.16 113.64C55.1867 113.613 55.2267 113.587 55.28 113.56C55.3333 113.533 55.3733 113.493 55.4 113.44C55.4533 113.387 55.5067 113.36 55.56 113.36C55.64 113.333 55.6933 113.293 55.72 113.24C55.8 113.107 55.8933 113.04 56 113.04H56.08C56.1867 113.04 56.24 113.067 56.24 113.12C56.24 113.253 56.16 113.36 56 113.44C55.8933 113.547 55.84 113.6 55.84 113.6C55.84 113.573 55.8 113.6 55.72 113.68C55.72 113.707 55.6933 113.72 55.64 113.72C55.6133 113.72 55.6 113.747 55.6 113.8C55.5733 113.8 55.5733 113.813 55.6 113.84C55.6267 113.867 55.6267 113.907 55.6 113.96C55.6 114.067 55.6 114.12 55.6 114.12C55.5733 114.147 55.5733 114.187 55.6 114.24C55.6267 114.267 55.6267 114.307 55.6 114.36C55.5733 114.36 55.5467 114.373 55.52 114.4L55.48 114.96C55.48 114.96 55.4933 115.04 55.52 115.2C55.5467 115.333 55.5467 115.413 55.52 115.44V115.64C55.52 115.72 55.64 115.8 55.88 115.88C55.9067 115.907 55.9333 115.92 55.96 115.92C56.0133 115.893 56.0533 115.893 56.08 115.92C56.4267 116.027 56.6533 116.107 56.76 116.16C56.8667 116.187 57.1067 116.2 57.48 116.2H57.8C57.9333 116.2 58.0533 116.187 58.16 116.16C58.1867 116.16 58.1867 116.173 58.16 116.2C58.16 116.2 58.1733 116.2 58.2 116.2L58.68 116.12C58.7067 116.093 58.7333 116.08 58.76 116.08C58.7867 116.053 58.8133 116.053 58.84 116.08C58.8667 116.08 58.8933 116.08 58.92 116.08L59.8 115.84C59.96 115.787 60.1067 115.733 60.24 115.68C60.4 115.6 60.56 115.547 60.72 115.52C60.96 115.467 61.2133 115.373 61.48 115.24C61.7467 115.08 62.0133 114.947 62.28 114.84C62.28 114.813 62.4 114.733 62.64 114.6C62.9067 114.467 63.1867 114.32 63.48 114.16L63.6 113.76C63.6533 113.627 63.7333 113.56 63.84 113.56C63.9467 113.533 64.0267 113.48 64.08 113.4C64 113.347 63.9333 113.307 63.88 113.28C63.8267 113.253 63.8267 113.187 63.88 113.08V113.04L64.08 112.4C64.1867 112.08 64.24 111.773 64.24 111.48C64.24 110.813 63.9867 110.333 63.48 110.04C62.9733 109.747 62.3733 109.6 61.68 109.6C61.5733 109.6 61.4533 109.6 61.32 109.6C61.2133 109.6 61.0933 109.613 60.96 109.64C60.72 109.667 60.48 109.707 60.24 109.76C60 109.813 59.7467 109.867 59.48 109.92H59.4C59.2933 109.92 59.2 109.947 59.12 110C59.04 110.027 58.96 110.067 58.88 110.12C58.5067 110.227 58.0933 110.373 57.64 110.56C57.4 110.613 57.2267 110.693 57.12 110.8C57.0133 110.853 56.9467 110.88 56.92 110.88V110.92C56.76 110.973 56.6267 111 56.52 111C56.4667 111 56.4 111 56.32 111C56.24 110.973 56.16 110.96 56.08 110.96C56.1333 110.987 56.1733 111 56.2 111C56.2267 111 56.2533 111.013 56.28 111.04C56.3067 111.12 56.28 111.173 56.2 111.2C56.1467 111.227 56.1067 111.267 56.08 111.32H56.04C56.0133 111.347 55.96 111.373 55.88 111.4C55.8267 111.427 55.7733 111.467 55.72 111.52C55.48 111.547 55.2667 111.627 55.08 111.76C54.92 111.893 54.7733 112.04 54.64 112.2H54.6L53.68 112.84C53.4667 112.947 53.28 113.08 53.12 113.24C52.7733 113.507 52.4267 113.787 52.08 114.08C51.7333 114.373 51.3867 114.667 51.04 114.96H50.96C50.8267 114.96 50.7467 115 50.72 115.08C50.72 115.133 50.6933 115.227 50.64 115.36H50.6C50.52 115.467 50.4267 115.56 50.32 115.64C50.2133 115.667 50.1467 115.72 50.12 115.8C50.0933 115.88 50.04 115.96 49.96 116.04L49.68 116.32C49.5733 116.293 49.4533 116.253 49.32 116.2C49.2133 116.12 49.0933 116.08 48.96 116.08C48.96 116.08 48.9467 116.093 48.92 116.12C48.92 116.12 48.92 116.147 48.92 116.2C49.08 116.227 49.2133 116.293 49.32 116.4C49.4267 116.507 49.4133 116.627 49.28 116.76L49.2 116.84C49.0933 116.947 48.96 116.987 48.8 116.96C48.6667 116.933 48.5467 116.987 48.44 117.12C48.4933 117.147 48.56 117.16 48.64 117.16C48.72 117.16 48.76 117.227 48.76 117.36C48.6267 117.52 48.4933 117.68 48.36 117.84C48.2533 118 48.1333 118.16 48 118.32C47.8933 118.427 47.8 118.547 47.72 118.68C47.64 118.787 47.5333 118.88 47.4 118.96C47.3733 118.987 47.36 119.027 47.36 119.08C47.3867 119.107 47.3867 119.133 47.36 119.16V119.2L46.76 120.16C46.6267 120.24 46.52 120.32 46.44 120.4C46.36 120.48 46.32 120.6 46.32 120.76C46.4267 120.653 46.48 120.613 46.48 120.64V120.68C46.48 120.733 46.4533 120.787 46.4 120.84C46.3467 120.867 46.3067 120.907 46.28 120.96L46.08 121.44C45.8133 122.053 45.6267 122.6 45.52 123.08C45.36 123.587 45.28 124.067 45.28 124.52C45.2533 124.627 45.2 124.733 45.12 124.84C45.0667 124.92 45.08 125.013 45.16 125.12C45.2133 125.173 45.2533 125.213 45.28 125.24C45.3067 125.24 45.32 125.293 45.32 125.4C45.32 125.533 45.3333 125.627 45.36 125.68V125.8C45.36 125.88 45.3333 125.96 45.28 126.04C45.2267 126.12 45.2133 126.2 45.24 126.28C45.2667 126.307 45.32 126.32 45.4 126.32C45.48 126.293 45.5333 126.307 45.56 126.36L45.8 126.8C45.88 126.853 45.9333 126.933 45.96 127.04C45.9867 127.147 46.0133 127.227 46.04 127.28C46.0933 127.333 46.16 127.387 46.24 127.44C46.32 127.467 46.3733 127.52 46.4 127.6C46.4 127.627 46.3867 127.653 46.36 127.68C46.36 127.68 46.36 127.707 46.36 127.76C46.4933 127.707 46.5067 127.6 46.4 127.44C46.56 127.547 46.56 127.653 46.4 127.76C46.4533 127.76 46.5067 127.76 46.56 127.76C46.6133 127.733 46.6667 127.72 46.72 127.72C46.8267 127.72 46.9333 127.76 47.04 127.84C47.4667 128.053 47.9467 128.2 48.48 128.28C49.04 128.387 49.64 128.44 50.28 128.44C51 128.44 51.7733 128.373 52.6 128.24C53.4267 128.133 54.2533 127.987 55.08 127.8V127.76C55.1333 127.76 55.1733 127.773 55.2 127.8C55.2267 127.8 55.2533 127.8 55.28 127.8C55.4133 127.8 55.5333 127.747 55.64 127.64L56.08 127.52C56.2933 127.387 56.4933 127.28 56.68 127.2C56.8667 127.12 57.0667 127.107 57.28 127.16C57.3333 127.187 57.3333 127.213 57.28 127.24C57.2533 127.24 57.24 127.267 57.24 127.32C57.2933 127.293 57.3333 127.253 57.36 127.2C57.3867 127.147 57.4267 127.107 57.48 127.08L57.72 127C57.9067 126.973 58.0667 126.933 58.2 126.88C58.3333 126.8 58.48 126.733 58.64 126.68L59.08 126.52C59.1333 126.547 59.1867 126.56 59.24 126.56C59.3467 126.56 59.4267 126.533 59.48 126.48C59.5333 126.4 59.6133 126.32 59.72 126.24C59.7467 126.24 59.8133 126.213 59.92 126.16C60.0533 126.107 60.2 126.067 60.36 126.04C60.52 125.987 60.6533 125.907 60.76 125.8H60.8C61.2 125.613 61.5867 125.427 61.96 125.24C62.3333 125.053 62.6933 124.867 63.04 124.68L64.12 124.08C64.2533 123.973 64.36 123.88 64.44 123.8C64.52 123.72 64.6267 123.68 64.76 123.68L64.8 123.64C64.9867 123.453 65.1867 123.307 65.4 123.2C65.6133 123.067 65.7867 122.933 65.92 122.8C66.1333 122.613 66.2933 122.52 66.4 122.52C66.48 122.52 66.52 122.573 66.52 122.68C66.52 122.813 66.44 122.96 66.28 123.12C66.04 123.333 65.7733 123.573 65.48 123.84C65.1867 124.107 64.8533 124.387 64.48 124.68C64.3467 124.787 64.2 124.853 64.04 124.88C63.9067 124.907 63.8133 125 63.76 125.16C63.6 125.267 63.4267 125.373 63.24 125.48C63.08 125.587 62.8933 125.693 62.68 125.8C62.44 125.933 62.1867 126.067 61.92 126.2C61.68 126.333 61.4133 126.467 61.12 126.6C61.04 126.6 60.9467 126.6 60.84 126.6C60.76 126.573 60.68 126.56 60.6 126.56C60.4133 126.56 60.28 126.6 60.2 126.68C60.2 126.68 60.2 126.693 60.2 126.72C60.2 126.72 60.2133 126.747 60.24 126.8C60.2933 126.8 60.3467 126.8 60.4 126.8C60.4533 126.773 60.5067 126.773 60.56 126.8C60.56 126.8 60.56 126.813 60.56 126.84C60.56 126.867 60.5333 126.88 60.48 126.88C60.3733 126.933 60.2933 126.96 60.24 126.96V127L59.96 127.12H59.92C59.8133 127.227 59.7333 127.2 59.68 127.04C59.6 127.067 59.52 127.12 59.44 127.2C59.3867 127.28 59.32 127.347 59.24 127.4L58.96 127.52C58.8533 127.547 58.7467 127.573 58.64 127.6C58.5333 127.6 58.4533 127.64 58.4 127.72H58.36C58.2533 127.773 58.12 127.827 57.96 127.88C57.8267 127.907 57.6933 127.947 57.56 128V128.04H57.36C57.2267 128.04 57.08 128.027 56.92 128C56.76 127.947 56.6 127.92 56.44 127.92C56.4933 128 56.5867 128.04 56.72 128.04C56.8533 128.067 56.8933 128.133 56.84 128.24C56.84 128.267 56.8267 128.28 56.8 128.28L55.76 128.56V128.6C55.6533 128.627 55.5333 128.64 55.4 128.64C55.2933 128.667 55.1867 128.707 55.08 128.76C54.04 129.027 53.0133 129.213 52 129.32C50.9867 129.427 50.04 129.48 49.16 129.48H49.12ZM57.72 117.56C57.7467 117.533 57.8 117.52 57.88 117.52C57.9867 117.493 58.0667 117.467 58.12 117.44L59 117.36C59.0267 117.36 59.0533 117.347 59.08 117.32C59.1067 117.293 59.1333 117.28 59.16 117.28C59.1867 117.253 59.2267 117.24 59.28 117.24C59.4133 117.133 59.48 117.12 59.48 117.2C59.48 117.253 59.5333 117.24 59.64 117.16C59.6667 117.133 59.7067 117.12 59.76 117.12C59.8133 117.067 59.8533 117.04 59.88 117.04C59.9333 117.013 59.9733 116.987 60 116.96C60.0533 116.933 60.08 116.92 60.08 116.92C60.08 116.893 60.1067 116.88 60.16 116.88H60.2C60.2533 116.88 60.3467 116.84 60.48 116.76C60.6133 116.68 60.68 116.64 60.68 116.64C60.7067 116.64 60.7333 116.613 60.76 116.56C60.8133 116.507 60.8533 116.48 60.88 116.48C60.9067 116.453 60.9467 116.44 61 116.44C61.0533 116.413 61.08 116.387 61.08 116.36C61.1333 116.333 61.1867 116.307 61.24 116.28C61.2933 116.253 61.3333 116.24 61.36 116.24C61.3867 116.213 61.44 116.173 61.52 116.12C61.6267 116.067 61.68 116.027 61.68 116C61.7333 115.947 61.7867 115.907 61.84 115.88C61.92 115.853 61.9733 115.827 62 115.8C62.08 115.773 62.2667 115.64 62.56 115.4C62.8533 115.133 63.1067 114.827 63.32 114.48C63.3733 114.427 63.2533 114.493 62.96 114.68C62.6933 114.84 62.5467 114.933 62.52 114.96C62.4933 114.96 62.44 115 62.36 115.08C62.28 115.133 62.2267 115.16 62.2 115.16L62.12 115.24H62L61.96 115.28C61.96 115.28 61.9067 115.307 61.8 115.36C61.7733 115.36 61.72 115.387 61.64 115.44C61.56 115.493 61.5067 115.52 61.48 115.52C61.4533 115.52 61.4267 115.533 61.4 115.56C61.3733 115.56 61.3467 115.56 61.32 115.56C61.2133 115.64 61.0533 115.72 60.84 115.8C60.6533 115.88 60.52 115.92 60.44 115.92H60.4C60.3467 115.92 60.2933 115.947 60.24 116L60.2 116.04L60 116.08C59.9467 116.107 59.88 116.133 59.8 116.16C59.72 116.187 59.6533 116.2 59.6 116.2C59.5733 116.227 59.56 116.24 59.56 116.24C59.56 116.213 59.56 116.2 59.56 116.2C59.5067 116.253 59.44 116.28 59.36 116.28C59.3333 116.28 59.32 116.28 59.32 116.28C59.32 116.253 59.3067 116.24 59.28 116.24C59.2533 116.24 59.2 116.28 59.12 116.36H58.92C58.92 116.387 58.8933 116.4 58.84 116.4H58.8C58.7733 116.4 58.7333 116.413 58.68 116.44C58.6267 116.467 58.5867 116.48 58.56 116.48C58.5333 116.48 58.52 116.493 58.52 116.52C58.52 116.52 58.5067 116.52 58.48 116.52C58.48 116.493 58.4667 116.48 58.44 116.48H58.4L58.16 116.56H58.04C57.96 116.56 57.8667 116.547 57.76 116.52C57.68 116.493 57.5867 116.493 57.48 116.52C57.4533 116.52 57.44 116.533 57.44 116.56C57.44 116.56 57.4267 116.56 57.4 116.56H57.32C57.32 116.56 57.3067 116.56 57.28 116.56C57.28 116.56 57.2667 116.573 57.24 116.6C57.24 116.573 57.2267 116.56 57.2 116.56H56.96C56.96 116.533 56.9467 116.52 56.92 116.52C56.8933 116.52 56.8667 116.533 56.84 116.56C56.8133 116.56 56.7867 116.56 56.76 116.56C56.6 116.56 56.48 116.507 56.4 116.4C56.32 116.293 56.1733 116.267 55.96 116.32C55.96 116.293 55.9467 116.28 55.92 116.28C55.8933 116.253 55.88 116.227 55.88 116.2H55.84C55.7867 116.253 55.76 116.293 55.76 116.32C55.7333 116.347 55.7333 116.387 55.76 116.44C55.8133 116.467 55.8267 116.507 55.8 116.56C55.8267 116.587 55.84 116.627 55.84 116.68C55.8667 116.707 55.8933 116.72 55.92 116.72C55.92 116.8 55.96 116.88 56.04 116.96C56.04 116.987 56.0533 117.013 56.08 117.04C56.1333 117.067 56.1467 117.08 56.12 117.08C56.1467 117.107 56.1733 117.12 56.2 117.12C56.2267 117.12 56.24 117.147 56.24 117.2L56.36 117.32H56.4C56.64 117.427 56.88 117.507 57.12 117.56C57.3867 117.587 57.5867 117.587 57.72 117.56ZM68.2934 128.36C67.7068 128.36 67.1868 128.2 66.7334 127.88C66.3068 127.533 66.0934 126.947 66.0934 126.12C66.0934 125.827 66.1468 125.413 66.2534 124.88C66.3601 124.347 66.5334 123.787 66.7734 123.2C66.9068 122.88 67.0534 122.573 67.2134 122.28C67.4001 121.987 67.5734 121.707 67.7334 121.44C67.7601 121.413 67.8401 121.44 67.9734 121.52C68.1334 121.6 68.2268 121.627 68.2534 121.6C68.2801 121.547 68.2401 121.493 68.1334 121.44C68.0534 121.36 68.0268 121.307 68.0534 121.28C68.1068 121.227 68.1468 121.2 68.1734 121.2C68.2268 121.173 68.2668 121.133 68.2934 121.08C68.3201 121.027 68.3334 120.973 68.3334 120.92C68.3334 120.84 68.2934 120.773 68.2134 120.72C68.1601 120.667 68.1868 120.587 68.2934 120.48C68.4268 120.293 68.5734 120.12 68.7334 119.96C68.9201 119.773 69.0801 119.613 69.2134 119.48C69.2668 119.427 69.3334 119.347 69.4134 119.24C69.4934 119.107 69.5468 119.027 69.5734 119L69.6534 118.92C69.6801 118.893 69.7068 118.867 69.7334 118.84C69.7334 118.813 69.7334 118.8 69.7334 118.8C69.7601 118.8 69.7734 118.787 69.7734 118.76C69.7734 118.68 69.6934 118.6 69.5334 118.52C69.3734 118.44 69.2934 118.387 69.2934 118.36C69.2934 118.333 69.2801 118.307 69.2534 118.28C69.2268 118.253 69.2001 118.213 69.1734 118.16C69.2001 118.16 69.2268 118.133 69.2534 118.08C69.3068 118 69.3468 117.96 69.3734 117.96C69.4001 117.96 69.4534 117.987 69.5334 118.04C69.6134 118.067 69.6668 118.08 69.6934 118.08C69.7201 118.08 69.7334 118.067 69.7334 118.04C69.7601 118.013 69.7868 118 69.8134 118C69.8668 118 69.9868 118.04 70.1734 118.12C70.3601 118.173 70.4668 118.2 70.4934 118.2C70.5201 118.2 70.6001 118.133 70.7334 118C70.8668 117.867 70.9468 117.787 70.9734 117.76C71.0268 117.707 71.0668 117.653 71.0934 117.6C71.1201 117.52 71.1868 117.427 71.2934 117.32H71.3334C71.3601 117.293 71.3734 117.267 71.3734 117.24C71.3734 117.213 71.3734 117.2 71.3734 117.2C71.4268 117.147 71.4668 117.107 71.4934 117.08C71.5468 117.027 71.5868 116.987 71.6134 116.96C71.6401 116.933 71.6534 116.92 71.6534 116.92C71.6801 116.92 71.6934 116.92 71.6934 116.92C71.7201 116.867 71.7468 116.827 71.7734 116.8C71.8268 116.773 71.8668 116.747 71.8934 116.72L71.9734 116.56C72.0268 116.507 72.2134 116.387 72.5334 116.2C72.8534 116.013 73.0934 115.92 73.2534 115.92H73.4534C73.4534 115.92 73.4534 115.933 73.4534 115.96C73.4534 115.96 73.4668 115.96 73.4934 115.96C73.5201 115.96 73.5468 115.96 73.5734 115.96C73.6001 115.933 73.6268 115.92 73.6534 115.92C73.6534 115.92 73.6934 115.96 73.7734 116.04C73.8001 116.067 73.8268 116.08 73.8534 116.08C73.8801 116.053 73.9068 116.04 73.9334 116.04C73.9601 116.067 73.9734 116.093 73.9734 116.12C73.9734 116.147 73.9868 116.16 74.0134 116.16C74.0668 116.16 74.0801 116.16 74.0534 116.16C74.0534 116.133 74.0668 116.12 74.0934 116.12C74.1201 116.12 74.1334 116.147 74.1334 116.2C74.1334 116.253 74.1468 116.307 74.1734 116.36C74.1468 116.44 74.1201 116.533 74.0934 116.64C74.0934 116.72 74.0801 116.787 74.0534 116.84C73.8134 117.16 73.6268 117.32 73.4934 117.32C73.4934 117.347 73.4534 117.4 73.3734 117.48C73.2934 117.48 73.2001 117.507 73.0934 117.56C72.9868 117.613 72.8801 117.667 72.7734 117.72V117.84C72.7734 117.947 72.7334 118 72.6534 118C72.6001 117.973 72.5468 118.013 72.4934 118.12V118.16C72.5468 118.24 72.6401 118.28 72.7734 118.28L73.0534 118.32C73.1068 118.32 73.1334 118.307 73.1334 118.28C73.1601 118.253 73.1868 118.24 73.2134 118.24C73.2401 118.24 73.2534 118.253 73.2534 118.28C73.2534 118.28 73.2668 118.28 73.2934 118.28C73.3468 118.28 73.3868 118.267 73.4134 118.24C73.4401 118.213 73.4668 118.2 73.4934 118.2L73.8534 118.24C73.7734 118.107 73.7334 118 73.7334 117.92C73.7334 117.787 73.8534 117.707 74.0934 117.68C74.4668 117.68 74.7868 117.813 75.0534 118.08C75.1068 118.053 75.1734 118.053 75.2534 118.08C75.3334 118.107 75.4134 118.107 75.4934 118.08L75.6934 117.96L75.7334 118C75.8401 117.947 75.9068 117.92 75.9334 117.92C75.9868 117.92 76.0001 117.933 75.9734 117.96C75.9734 117.96 75.9868 117.96 76.0134 117.96C76.0134 117.96 76.0401 117.933 76.0934 117.88C76.1201 117.88 76.1468 117.893 76.1734 117.92C76.2268 117.92 76.2668 117.907 76.2934 117.88L76.4134 117.76H76.8934L76.9334 117.72C76.9868 117.693 77.0534 117.667 77.1334 117.64C77.2401 117.587 77.3334 117.56 77.4134 117.56C77.4134 117.533 77.4401 117.52 77.4934 117.52C77.5468 117.493 77.5868 117.48 77.6134 117.48H77.6934C77.8268 117.48 77.8934 117.52 77.8934 117.6C77.8934 117.68 77.8534 117.747 77.7734 117.8C77.7468 117.827 77.7068 117.84 77.6534 117.84C77.6001 117.813 77.5468 117.813 77.4934 117.84C77.3868 117.947 77.3068 118 77.2534 118C77.2268 118 77.2134 118 77.2134 118C77.2134 117.973 77.2001 117.96 77.1734 117.96C77.1468 117.96 77.0934 118 77.0134 118.08L76.7334 118.12H76.6934C76.6401 118.12 76.6134 118.147 76.6134 118.2C76.5068 118.2 76.4001 118.213 76.2934 118.24C76.1868 118.24 76.0801 118.253 75.9734 118.28L75.9334 118.32C75.9068 118.32 75.8801 118.333 75.8534 118.36C75.8268 118.36 75.7868 118.36 75.7334 118.36C75.6801 118.387 75.5334 118.4 75.2934 118.4C75.4534 118.613 75.5601 118.813 75.6134 119C75.6668 119.133 75.7068 119.347 75.7334 119.64C75.7868 119.907 75.8001 120.107 75.7734 120.24C75.7734 120.32 75.7468 120.347 75.6934 120.32C75.6401 120.267 75.6134 120.267 75.6134 120.32C75.6134 120.4 75.6401 120.453 75.6934 120.48C75.7734 120.48 75.8134 120.547 75.8134 120.68C75.8134 120.76 75.8001 120.867 75.7734 121C75.7468 121.107 75.7201 121.227 75.6934 121.36C75.6668 121.52 75.6268 121.693 75.5734 121.88C75.5468 122.04 75.4801 122.2 75.3734 122.36L75.2534 122.56V122.8C75.2534 123.013 75.1868 123.16 75.0534 123.24C74.9468 123.32 74.8668 123.413 74.8134 123.52C74.7601 123.68 74.7201 123.787 74.6934 123.84C74.6934 123.893 74.6401 124 74.5334 124.16C74.1868 124.693 73.7734 125.2 73.2934 125.68C72.8134 126.16 72.3468 126.6 71.8934 127C71.4934 127.347 70.9468 127.667 70.2534 127.96C69.5868 128.227 68.9334 128.36 68.2934 128.36ZM68.6934 127.64C68.7734 127.64 68.9334 127.627 69.1734 127.6C69.4134 127.547 69.6668 127.427 69.9334 127.24C69.9868 127.213 70.0401 127.227 70.0934 127.28C70.1468 127.333 70.2001 127.347 70.2534 127.32C70.3868 127.267 70.4401 127.227 70.4134 127.2C70.3868 127.173 70.4268 127.147 70.5334 127.12H70.5734C70.7334 127.12 70.8001 127.107 70.7734 127.08C70.7734 127.027 70.7868 126.96 70.8134 126.88C70.8134 126.8 70.8534 126.733 70.9334 126.68C71.0134 126.627 71.0801 126.587 71.1334 126.56C71.4268 126.32 71.7868 125.92 72.2134 125.36C72.6401 124.773 73.0668 124.187 73.4934 123.6C73.5201 123.547 73.5601 123.533 73.6134 123.56C73.6668 123.587 73.7068 123.587 73.7334 123.56C73.7601 123.533 73.7734 123.453 73.7734 123.32C73.7734 123.24 73.8134 123.12 73.8934 122.96C73.9734 122.773 74.0534 122.627 74.1334 122.52C74.1601 122.44 74.2134 122.293 74.2934 122.08C74.3734 121.84 74.4401 121.627 74.4934 121.44C74.5734 121.227 74.5868 121.12 74.5334 121.12C74.4801 121.093 74.4534 121.067 74.4534 121.04C74.4534 120.987 74.5334 120.933 74.6934 120.88C74.8534 120.827 74.8401 120.787 74.6534 120.76C74.6001 120.733 74.6134 120.68 74.6934 120.6C74.7734 120.52 74.7334 120.467 74.5734 120.44C74.4401 120.413 74.3868 120.373 74.4134 120.32C74.4668 120.267 74.5068 120.227 74.5334 120.2C74.6134 120.12 74.6534 120.04 74.6534 119.96C74.6534 119.72 74.5868 119.48 74.4534 119.24C74.3468 119 74.2268 118.787 74.0934 118.6C73.9334 118.707 73.8534 118.76 73.8534 118.76C73.8268 118.76 73.8134 118.76 73.8134 118.76C73.8134 118.733 73.7868 118.72 73.7334 118.72C73.7068 118.72 73.6934 118.72 73.6934 118.72C73.6934 118.693 73.6801 118.68 73.6534 118.68C73.6268 118.68 73.6001 118.693 73.5734 118.72C73.5468 118.747 73.5334 118.76 73.5334 118.76C73.5068 118.787 73.4534 118.8 73.3734 118.8C73.3201 118.8 73.2801 118.8 73.2534 118.8C73.2268 118.8 73.2001 118.787 73.1734 118.76C73.1734 118.733 73.1601 118.72 73.1334 118.72C73.1068 118.72 73.0668 118.747 73.0134 118.8C72.9868 118.853 72.9468 118.88 72.8934 118.88C72.8668 118.88 72.8534 118.867 72.8534 118.84C72.8534 118.813 72.8268 118.8 72.7734 118.8C72.7468 118.8 72.7201 118.813 72.6934 118.84C72.6934 118.867 72.6801 118.88 72.6534 118.88C72.6268 118.88 72.5734 118.84 72.4934 118.76H72.4534C72.4534 118.92 72.4134 119 72.3334 119C72.3068 119 72.2668 118.973 72.2134 118.92C71.9201 119.107 71.4268 119.547 70.7334 120.24C70.0401 120.907 69.4268 121.68 68.8934 122.56C68.7868 122.773 68.6534 123.027 68.4934 123.32C68.3601 123.613 68.2401 123.947 68.1334 124.32C68.1068 124.48 68.0268 124.6 67.8934 124.68C67.7868 124.76 67.7068 124.853 67.6534 124.96C67.6268 125.067 67.6401 125.133 67.6934 125.16C67.7468 125.187 67.7868 125.227 67.8134 125.28C67.8134 125.387 67.7868 125.533 67.7334 125.72C67.7068 125.907 67.6934 126.08 67.6934 126.24C67.6934 126.747 67.7868 127.107 67.9734 127.32C68.1868 127.533 68.4268 127.64 68.6934 127.64ZM79.3872 128.36C78.8005 128.36 78.2805 128.2 77.8272 127.88C77.4005 127.533 77.1872 126.947 77.1872 126.12C77.1872 125.827 77.2405 125.413 77.3472 124.88C77.4539 124.347 77.6272 123.787 77.8672 123.2C78.0005 122.88 78.1472 122.573 78.3072 122.28C78.4939 121.987 78.6672 121.707 78.8272 121.44C78.8539 121.413 78.9339 121.44 79.0672 121.52C79.2272 121.6 79.3205 121.627 79.3472 121.6C79.3739 121.547 79.3339 121.493 79.2272 121.44C79.1472 121.36 79.1205 121.307 79.1472 121.28C79.2005 121.227 79.2405 121.2 79.2672 121.2C79.3205 121.173 79.3605 121.133 79.3872 121.08C79.4139 121.027 79.4272 120.973 79.4272 120.92C79.4272 120.84 79.3872 120.773 79.3072 120.72C79.2539 120.667 79.2805 120.587 79.3872 120.48C79.5205 120.293 79.6672 120.12 79.8272 119.96C80.0139 119.773 80.1739 119.613 80.3072 119.48C80.3605 119.427 80.4272 119.347 80.5072 119.24C80.5872 119.107 80.6405 119.027 80.6672 119L80.7472 118.92C80.7739 118.893 80.8005 118.867 80.8272 118.84C80.8272 118.813 80.8272 118.8 80.8272 118.8C80.8539 118.8 80.8672 118.787 80.8672 118.76C80.8672 118.68 80.7872 118.6 80.6272 118.52C80.4672 118.44 80.3872 118.387 80.3872 118.36C80.3872 118.333 80.3739 118.307 80.3472 118.28C80.3205 118.253 80.2939 118.213 80.2672 118.16C80.2939 118.16 80.3205 118.133 80.3472 118.08C80.4005 118 80.4405 117.96 80.4672 117.96C80.4939 117.96 80.5472 117.987 80.6272 118.04C80.7072 118.067 80.7605 118.08 80.7872 118.08C80.8139 118.08 80.8272 118.067 80.8272 118.04C80.8539 118.013 80.8805 118 80.9072 118C80.9605 118 81.0805 118.04 81.2672 118.12C81.4539 118.173 81.5605 118.2 81.5872 118.2C81.6139 118.2 81.6939 118.133 81.8272 118C81.9605 117.867 82.0405 117.787 82.0672 117.76C82.1205 117.707 82.1605 117.653 82.1872 117.6C82.2139 117.52 82.2805 117.427 82.3872 117.32H82.4272C82.4539 117.293 82.4672 117.267 82.4672 117.24C82.4672 117.213 82.4672 117.2 82.4672 117.2C82.5205 117.147 82.5605 117.107 82.5872 117.08C82.6405 117.027 82.6805 116.987 82.7072 116.96C82.7339 116.933 82.7472 116.92 82.7472 116.92C82.7739 116.92 82.7872 116.92 82.7872 116.92C82.8139 116.867 82.8405 116.827 82.8672 116.8C82.9205 116.773 82.9605 116.747 82.9872 116.72L83.0672 116.56C83.1205 116.507 83.3072 116.387 83.6272 116.2C83.9472 116.013 84.1872 115.92 84.3472 115.92H84.5472C84.5472 115.92 84.5472 115.933 84.5472 115.96C84.5472 115.96 84.5605 115.96 84.5872 115.96C84.6139 115.96 84.6405 115.96 84.6672 115.96C84.6939 115.933 84.7205 115.92 84.7472 115.92C84.7472 115.92 84.7872 115.96 84.8672 116.04C84.8939 116.067 84.9205 116.08 84.9472 116.08C84.9739 116.053 85.0005 116.04 85.0272 116.04C85.0539 116.067 85.0672 116.093 85.0672 116.12C85.0672 116.147 85.0805 116.16 85.1072 116.16C85.1605 116.16 85.1739 116.16 85.1472 116.16C85.1472 116.133 85.1605 116.12 85.1872 116.12C85.2139 116.12 85.2272 116.147 85.2272 116.2C85.2272 116.253 85.2405 116.307 85.2672 116.36C85.2405 116.44 85.2139 116.533 85.1872 116.64C85.1872 116.72 85.1739 116.787 85.1472 116.84C84.9072 117.16 84.7205 117.32 84.5872 117.32C84.5872 117.347 84.5472 117.4 84.4672 117.48C84.3872 117.48 84.2939 117.507 84.1872 117.56C84.0805 117.613 83.9739 117.667 83.8672 117.72V117.84C83.8672 117.947 83.8272 118 83.7472 118C83.6939 117.973 83.6405 118.013 83.5872 118.12V118.16C83.6405 118.24 83.7339 118.28 83.8672 118.28L84.1472 118.32C84.2005 118.32 84.2272 118.307 84.2272 118.28C84.2539 118.253 84.2805 118.24 84.3072 118.24C84.3339 118.24 84.3472 118.253 84.3472 118.28C84.3472 118.28 84.3605 118.28 84.3872 118.28C84.4405 118.28 84.4805 118.267 84.5072 118.24C84.5339 118.213 84.5605 118.2 84.5872 118.2L84.9472 118.24C84.8672 118.107 84.8272 118 84.8272 117.92C84.8272 117.787 84.9472 117.707 85.1872 117.68C85.5605 117.68 85.8805 117.813 86.1472 118.08C86.2005 118.053 86.2672 118.053 86.3472 118.08C86.4272 118.107 86.5072 118.107 86.5872 118.08L86.7872 117.96L86.8272 118C86.9339 117.947 87.0005 117.92 87.0272 117.92C87.0805 117.92 87.0939 117.933 87.0672 117.96C87.0672 117.96 87.0805 117.96 87.1072 117.96C87.1072 117.96 87.1339 117.933 87.1872 117.88C87.2139 117.88 87.2405 117.893 87.2672 117.92C87.3205 117.92 87.3605 117.907 87.3872 117.88L87.5072 117.76H87.9872L88.0272 117.72C88.0805 117.693 88.1472 117.667 88.2272 117.64C88.3339 117.587 88.4272 117.56 88.5072 117.56C88.5072 117.533 88.5339 117.52 88.5872 117.52C88.6405 117.493 88.6805 117.48 88.7072 117.48H88.7872C88.9205 117.48 88.9872 117.52 88.9872 117.6C88.9872 117.68 88.9472 117.747 88.8672 117.8C88.8405 117.827 88.8005 117.84 88.7472 117.84C88.6939 117.813 88.6405 117.813 88.5872 117.84C88.4805 117.947 88.4005 118 88.3472 118C88.3205 118 88.3072 118 88.3072 118C88.3072 117.973 88.2939 117.96 88.2672 117.96C88.2405 117.96 88.1872 118 88.1072 118.08L87.8272 118.12H87.7872C87.7339 118.12 87.7072 118.147 87.7072 118.2C87.6005 118.2 87.4939 118.213 87.3872 118.24C87.2805 118.24 87.1739 118.253 87.0672 118.28L87.0272 118.32C87.0005 118.32 86.9739 118.333 86.9472 118.36C86.9205 118.36 86.8805 118.36 86.8272 118.36C86.7739 118.387 86.6272 118.4 86.3872 118.4C86.5472 118.613 86.6539 118.813 86.7072 119C86.7605 119.133 86.8005 119.347 86.8272 119.64C86.8805 119.907 86.8939 120.107 86.8672 120.24C86.8672 120.32 86.8405 120.347 86.7872 120.32C86.7339 120.267 86.7072 120.267 86.7072 120.32C86.7072 120.4 86.7339 120.453 86.7872 120.48C86.8672 120.48 86.9072 120.547 86.9072 120.68C86.9072 120.76 86.8939 120.867 86.8672 121C86.8405 121.107 86.8139 121.227 86.7872 121.36C86.7605 121.52 86.7205 121.693 86.6672 121.88C86.6405 122.04 86.5739 122.2 86.4672 122.36L86.3472 122.56V122.8C86.3472 123.013 86.2805 123.16 86.1472 123.24C86.0405 123.32 85.9605 123.413 85.9072 123.52C85.8539 123.68 85.8139 123.787 85.7872 123.84C85.7872 123.893 85.7339 124 85.6272 124.16C85.2805 124.693 84.8672 125.2 84.3872 125.68C83.9072 126.16 83.4405 126.6 82.9872 127C82.5872 127.347 82.0405 127.667 81.3472 127.96C80.6805 128.227 80.0272 128.36 79.3872 128.36ZM79.7872 127.64C79.8672 127.64 80.0272 127.627 80.2672 127.6C80.5072 127.547 80.7605 127.427 81.0272 127.24C81.0805 127.213 81.1339 127.227 81.1872 127.28C81.2405 127.333 81.2939 127.347 81.3472 127.32C81.4805 127.267 81.5339 127.227 81.5072 127.2C81.4805 127.173 81.5205 127.147 81.6272 127.12H81.6672C81.8272 127.12 81.8939 127.107 81.8672 127.08C81.8672 127.027 81.8805 126.96 81.9072 126.88C81.9072 126.8 81.9472 126.733 82.0272 126.68C82.1072 126.627 82.1739 126.587 82.2272 126.56C82.5205 126.32 82.8805 125.92 83.3072 125.36C83.7339 124.773 84.1605 124.187 84.5872 123.6C84.6139 123.547 84.6539 123.533 84.7072 123.56C84.7605 123.587 84.8005 123.587 84.8272 123.56C84.8539 123.533 84.8672 123.453 84.8672 123.32C84.8672 123.24 84.9072 123.12 84.9872 122.96C85.0672 122.773 85.1472 122.627 85.2272 122.52C85.2539 122.44 85.3072 122.293 85.3872 122.08C85.4672 121.84 85.5339 121.627 85.5872 121.44C85.6672 121.227 85.6805 121.12 85.6272 121.12C85.5739 121.093 85.5472 121.067 85.5472 121.04C85.5472 120.987 85.6272 120.933 85.7872 120.88C85.9472 120.827 85.9339 120.787 85.7472 120.76C85.6939 120.733 85.7072 120.68 85.7872 120.6C85.8672 120.52 85.8272 120.467 85.6672 120.44C85.5339 120.413 85.4805 120.373 85.5072 120.32C85.5605 120.267 85.6005 120.227 85.6272 120.2C85.7072 120.12 85.7472 120.04 85.7472 119.96C85.7472 119.72 85.6805 119.48 85.5472 119.24C85.4405 119 85.3205 118.787 85.1872 118.6C85.0272 118.707 84.9472 118.76 84.9472 118.76C84.9205 118.76 84.9072 118.76 84.9072 118.76C84.9072 118.733 84.8805 118.72 84.8272 118.72C84.8005 118.72 84.7872 118.72 84.7872 118.72C84.7872 118.693 84.7739 118.68 84.7472 118.68C84.7205 118.68 84.6939 118.693 84.6672 118.72C84.6405 118.747 84.6272 118.76 84.6272 118.76C84.6005 118.787 84.5472 118.8 84.4672 118.8C84.4139 118.8 84.3739 118.8 84.3472 118.8C84.3205 118.8 84.2939 118.787 84.2672 118.76C84.2672 118.733 84.2539 118.72 84.2272 118.72C84.2005 118.72 84.1605 118.747 84.1072 118.8C84.0805 118.853 84.0405 118.88 83.9872 118.88C83.9605 118.88 83.9472 118.867 83.9472 118.84C83.9472 118.813 83.9205 118.8 83.8672 118.8C83.8405 118.8 83.8139 118.813 83.7872 118.84C83.7872 118.867 83.7739 118.88 83.7472 118.88C83.7205 118.88 83.6672 118.84 83.5872 118.76H83.5472C83.5472 118.92 83.5072 119 83.4272 119C83.4005 119 83.3605 118.973 83.3072 118.92C83.0139 119.107 82.5205 119.547 81.8272 120.24C81.1339 120.907 80.5205 121.68 79.9872 122.56C79.8805 122.773 79.7472 123.027 79.5872 123.32C79.4539 123.613 79.3339 123.947 79.2272 124.32C79.2005 124.48 79.1205 124.6 78.9872 124.68C78.8805 124.76 78.8005 124.853 78.7472 124.96C78.7205 125.067 78.7339 125.133 78.7872 125.16C78.8405 125.187 78.8805 125.227 78.9072 125.28C78.9072 125.387 78.8805 125.533 78.8272 125.72C78.8005 125.907 78.7872 126.08 78.7872 126.24C78.7872 126.747 78.8805 127.107 79.0672 127.32C79.2805 127.533 79.5205 127.64 79.7872 127.64ZM87.8009 129.44C87.7476 129.28 87.7209 129.12 87.7209 128.96C87.7209 128.88 87.7343 128.8 87.7609 128.72C87.7609 128.667 87.7743 128.6 87.8009 128.52C87.8276 128.44 87.8943 128.227 88.0009 127.88C88.1343 127.533 88.2543 127.173 88.3609 126.8C88.4943 126.427 88.5876 126.213 88.6409 126.16C88.6409 126.16 88.7209 125.96 88.8809 125.56C89.0676 125.133 89.2676 124.693 89.4809 124.24C89.6943 123.76 89.8543 123.453 89.9609 123.32C90.0943 123.027 90.2943 122.667 90.5609 122.24C90.8543 121.787 91.1343 121.253 91.4009 120.64V120.44C91.4009 120.36 91.4009 120.293 91.4009 120.24C91.4276 120.16 91.4543 120.08 91.4809 120C91.5876 119.787 91.6809 119.64 91.7609 119.56C91.8676 119.48 91.9743 119.333 92.0809 119.12C92.0809 119.067 92.0809 119.013 92.0809 118.96C92.1076 118.907 92.1343 118.853 92.1609 118.8C92.1076 118.853 92.0943 118.813 92.1209 118.68C92.0676 118.68 92.1209 118.547 92.2809 118.28C92.3876 118.04 92.4676 117.907 92.5209 117.88H92.5609C92.6676 117.72 92.7609 117.587 92.8409 117.48C92.9209 117.347 92.9476 117.267 92.9209 117.24V117.16C92.9209 116.973 92.9743 116.8 93.0809 116.64C93.2143 116.48 93.3343 116.307 93.4409 116.12C93.5209 116.013 93.5876 115.96 93.6409 115.96C93.6943 115.96 93.7209 115.973 93.7209 116C93.7476 116 93.7743 116 93.8009 116C93.8809 116 93.9209 115.933 93.9209 115.8C93.9209 115.747 93.9076 115.68 93.8809 115.6C93.8809 115.52 93.8676 115.427 93.8409 115.32C93.8676 115.187 93.9743 115.08 94.1609 115L94.2809 114.96C94.4143 114.4 94.5743 114.027 94.7609 113.84C94.8143 113.787 94.8676 113.733 94.9209 113.68C94.9743 113.627 95.0276 113.573 95.0809 113.52C95.4009 113.173 95.6409 112.8 95.8009 112.4C95.8543 112.293 95.9209 112.213 96.0009 112.16C96.1076 112.08 96.2009 111.987 96.2809 111.88C96.3343 111.8 96.3476 111.72 96.3209 111.64C96.3209 111.533 96.3343 111.44 96.3609 111.36C96.4943 111.147 96.5876 111.027 96.6409 111C96.6943 110.973 96.7476 110.947 96.8009 110.92C96.8809 110.867 97.0143 110.747 97.2009 110.56C97.2809 110.427 97.3609 110.293 97.4409 110.16C97.5476 110.027 97.6543 109.893 97.7609 109.76C97.9209 109.573 98.0943 109.44 98.2809 109.36C98.4676 109.28 98.6543 109.16 98.8409 109C98.8943 108.947 98.9209 108.867 98.9209 108.76C98.9209 108.627 98.9476 108.533 99.0009 108.48C99.9343 107.733 100.934 107.107 102.001 106.6C103.094 106.093 103.934 105.84 104.521 105.84C104.734 105.84 104.934 105.853 105.121 105.88C105.334 105.907 105.534 105.947 105.721 106H105.801C105.934 106 106.068 106.027 106.201 106.08C106.334 106.133 106.454 106.187 106.561 106.24C106.668 106.24 106.801 106.267 106.961 106.32C107.094 106.373 107.174 106.453 107.201 106.56C107.228 106.667 107.201 106.747 107.121 106.8C107.094 106.827 107.054 106.827 107.001 106.8C106.948 106.773 106.894 106.76 106.841 106.76C106.788 106.76 106.734 106.733 106.681 106.68C106.628 106.627 106.574 106.587 106.521 106.56C106.414 106.56 106.294 106.573 106.161 106.6C106.054 106.627 105.934 106.64 105.801 106.64H105.681C105.494 106.64 105.361 106.613 105.281 106.56C105.228 106.48 105.094 106.467 104.881 106.52C104.854 106.52 104.774 106.533 104.641 106.56C104.508 106.587 104.414 106.6 104.361 106.6C103.401 106.84 102.561 107.24 101.841 107.8C101.121 108.333 100.481 108.933 99.9209 109.6C99.3876 110.267 98.8676 110.907 98.3609 111.52C98.1209 112 97.8809 112.387 97.6409 112.68C97.6143 112.707 97.5876 112.693 97.5609 112.64C97.5343 112.587 97.5076 112.587 97.4809 112.64C97.4009 112.72 97.3343 112.853 97.2809 113.04C97.2543 113.2 97.2009 113.333 97.1209 113.44C97.0943 113.467 97.0676 113.453 97.0409 113.4C97.0143 113.347 96.9743 113.347 96.9209 113.4C96.8943 113.427 96.8543 113.533 96.8009 113.72C96.7743 113.88 96.7343 113.987 96.6809 114.04C96.3609 114.467 96.0143 114.88 95.6409 115.28C95.2676 115.68 94.8943 116.147 94.5209 116.68C93.9876 117.507 93.4809 118.32 93.0009 119.12C92.5209 119.92 92.0143 120.8 91.4809 121.76C91.2943 122.08 91.1476 122.373 91.0409 122.64C90.9609 122.88 90.8676 123.107 90.7609 123.32C90.6276 123.64 90.5609 123.867 90.5609 124C90.5609 124.187 90.6809 124.227 90.9209 124.12C91.0276 124.067 91.1743 123.933 91.3609 123.72C91.5743 123.48 91.7209 123.347 91.8009 123.32C91.8276 123.293 91.8676 123.28 91.9209 123.28C92.0276 123.28 92.0809 123.32 92.0809 123.4C92.0809 123.507 92.0143 123.6 91.8809 123.68C91.7743 123.733 91.7076 123.8 91.6809 123.88C91.6543 123.96 91.5876 124.067 91.4809 124.2C91.4009 124.253 91.3476 124.333 91.3209 124.44C91.2943 124.547 91.2676 124.613 91.2409 124.64C91.2143 124.693 91.2009 124.773 91.2009 124.88C91.2009 124.96 91.1343 125.053 91.0009 125.16C90.9743 125.187 90.9476 125.24 90.9209 125.32C90.9209 125.4 90.9076 125.467 90.8809 125.52C90.8543 125.6 90.8009 125.667 90.7209 125.72C90.6676 125.747 90.6409 125.773 90.6409 125.8C90.6143 125.907 90.5609 125.973 90.4809 126C90.4276 126 90.3743 126.027 90.3209 126.08C90.2943 126.107 90.2943 126.147 90.3209 126.2C90.3476 126.253 90.3343 126.307 90.2809 126.36L89.8809 127.2C89.8543 127.253 89.8143 127.307 89.7609 127.36C89.7343 127.413 89.6943 127.453 89.6409 127.48C89.6143 127.48 89.5609 127.467 89.4809 127.44C89.4276 127.413 89.4009 127.427 89.4009 127.48C89.3743 127.507 89.3743 127.587 89.4009 127.72C89.4543 127.827 89.4409 127.907 89.3609 127.96C89.2809 128.013 89.2009 128.12 89.1209 128.28C89.0676 128.467 89.0143 128.587 88.9609 128.64C88.8543 128.747 88.7609 128.813 88.6809 128.84C88.6009 128.893 88.5209 128.973 88.4409 129.08C88.4143 129.107 88.3209 129.213 88.1609 129.4C88.0009 129.613 87.8809 129.627 87.8009 129.44ZM99.5209 128.64C99.2543 128.64 99.0543 128.587 98.9209 128.48C98.8676 128.453 98.8009 128.413 98.7209 128.36C98.6676 128.307 98.6143 128.28 98.5609 128.28H98.4809C98.4543 128.28 98.4143 128.24 98.3609 128.16C98.3076 128.107 98.2543 128.067 98.2009 128.04C98.1743 128.04 98.0809 127.987 97.9209 127.88C97.7609 127.747 97.6543 127.667 97.6009 127.64C97.5743 127.613 97.5476 127.587 97.5209 127.56C97.5209 127.507 97.5076 127.48 97.4809 127.48H97.4009C97.4009 127.48 97.4009 127.453 97.4009 127.4C97.3209 127.293 97.2409 127.2 97.1609 127.12C97.0809 127.04 97.0276 126.947 97.0009 126.84L96.9209 126.88C96.8943 126.827 96.8543 126.773 96.8009 126.72C96.7743 126.64 96.7343 126.587 96.6809 126.56C96.6809 126.507 96.6009 126.387 96.4409 126.2C96.3076 126.013 96.2143 125.907 96.1609 125.88C96.1609 125.8 96.1343 125.733 96.0809 125.68C96.0276 125.6 95.9743 125.533 95.9209 125.48C95.9209 125.4 95.9209 125.36 95.9209 125.36C95.8676 125.227 95.7876 125.12 95.6809 125.04C95.6009 124.933 95.5343 124.827 95.4809 124.72C95.4276 124.613 95.3876 124.52 95.3609 124.44C95.3609 124.36 95.3609 124.307 95.3609 124.28C95.3076 124.2 95.1876 124.067 95.0009 123.88L94.9609 123.84C94.9609 123.787 94.9476 123.72 94.9209 123.64C94.8943 123.56 94.8676 123.493 94.8409 123.44C94.7609 123.387 94.6943 123.293 94.6409 123.16C94.6143 123.027 94.5743 122.92 94.5209 122.84V122.68L94.2009 122.16C94.1743 122.107 94.1609 122.053 94.1609 122C94.1609 121.947 94.1343 121.893 94.0809 121.84C93.9476 121.813 93.9343 121.707 94.0409 121.52C93.9609 121.333 93.8809 121.24 93.8009 121.24C93.7476 121.24 93.6943 121.28 93.6409 121.36C93.5876 121.413 93.5476 121.453 93.5209 121.48C93.4943 121.48 93.4543 121.547 93.4009 121.68C93.3476 121.787 93.3076 121.853 93.2809 121.88C93.2543 122.04 93.1743 122.16 93.0409 122.24C92.9343 122.32 92.8543 122.427 92.8009 122.56C92.6143 122.96 92.4276 123.133 92.2409 123.08C92.2143 123.08 92.2009 123.053 92.2009 123C92.2009 122.973 92.2009 122.933 92.2009 122.88C92.2009 122.8 92.2276 122.707 92.2809 122.6L92.4409 122.28C92.4943 122.227 92.5476 122.173 92.6009 122.12C92.6809 122.04 92.7476 121.973 92.8009 121.92C93.0409 121.627 93.2276 121.373 93.3609 121.16C93.4943 120.92 93.7743 120.667 94.2009 120.4C94.3343 120.32 94.4276 120.24 94.4809 120.16C94.6409 120.133 94.7609 120.013 94.8409 119.8L94.9209 119.84C94.9476 119.787 94.9743 119.76 95.0009 119.76C95.0543 119.76 95.0943 119.747 95.1209 119.72C95.4943 119.427 95.8276 119.187 96.1209 119C96.4409 118.787 96.7876 118.547 97.1609 118.28C97.1609 118.28 97.2409 118.2 97.4009 118.04C97.5609 117.88 97.6676 117.787 97.7209 117.76C97.7476 117.733 97.8143 117.72 97.9209 117.72C97.9743 117.693 98.0543 117.64 98.1609 117.56C98.2676 117.48 98.3343 117.427 98.3609 117.4C98.4143 117.4 98.4676 117.387 98.5209 117.36C98.5743 117.333 98.6143 117.32 98.6409 117.32C98.8276 117.08 99.0676 116.933 99.3609 116.88C99.3609 116.853 99.3609 116.84 99.3609 116.84C99.3876 116.813 99.4009 116.787 99.4009 116.76H99.4809C99.5076 116.76 99.5343 116.747 99.5609 116.72C99.5876 116.693 99.6143 116.68 99.6409 116.68C99.6943 116.653 99.7609 116.627 99.8409 116.6C99.9476 116.547 100.001 116.493 100.001 116.44C100.001 116.413 100.028 116.427 100.081 116.48C100.108 116.48 100.188 116.467 100.321 116.44C100.481 116.413 100.574 116.387 100.601 116.36L100.641 116.4L100.881 116.24L101.281 116.16C101.361 116.133 101.468 116.107 101.601 116.08C101.761 116.053 101.881 116.053 101.961 116.08C101.961 116.08 101.974 116.093 102.001 116.12C102.161 116.12 102.201 116.24 102.121 116.48C102.041 116.72 101.921 116.947 101.761 117.16C101.601 117.373 101.481 117.467 101.401 117.44C101.401 117.44 101.388 117.427 101.361 117.4C101.334 117.4 101.254 117.427 101.121 117.48C100.988 117.507 100.894 117.52 100.841 117.52C100.814 117.493 100.788 117.48 100.761 117.48C100.734 117.507 100.694 117.56 100.641 117.64C100.614 117.693 100.561 117.747 100.481 117.8C100.454 117.827 100.254 117.867 99.8809 117.92C99.5076 117.973 99.2943 117.987 99.2409 117.96H99.2009C99.1209 117.96 98.8809 118.053 98.4809 118.24C98.1076 118.4 97.8676 118.507 97.7609 118.56C97.7076 118.587 97.6543 118.6 97.6009 118.6C97.5476 118.573 97.4943 118.587 97.4409 118.64C97.3609 118.667 97.2809 118.707 97.2009 118.76C97.1476 118.813 97.0809 118.867 97.0009 118.92C96.8143 119.08 96.4809 119.28 96.0009 119.52C95.5476 119.76 95.2409 120.027 95.0809 120.32C95.0009 120.427 94.9876 120.52 95.0409 120.6C95.1209 120.68 95.1476 120.733 95.1209 120.76L96.8009 123.76C96.8543 123.813 96.9076 123.893 96.9609 124C97.0409 124.107 97.0943 124.187 97.1209 124.24C97.1743 124.267 97.2143 124.307 97.2409 124.36C97.2676 124.413 97.3076 124.467 97.3609 124.52C97.4143 124.68 97.5209 124.827 97.6809 124.96C97.8409 125.093 97.9076 125.227 97.8809 125.36L98.0809 125.52C98.1076 125.52 98.1209 125.547 98.1209 125.6C98.1476 125.627 98.1876 125.64 98.2409 125.64C98.2409 125.667 98.2809 125.747 98.3609 125.88C98.4676 126.013 98.5343 126.107 98.5609 126.16L98.6009 126.12C98.6809 126.253 98.7743 126.387 98.8809 126.52C99.0143 126.627 99.1343 126.733 99.2409 126.84L99.4009 126.92C99.4543 126.947 99.5076 127 99.5609 127.08C99.6143 127.133 99.6543 127.16 99.6809 127.16H99.7209C99.8276 127.16 99.8943 127.187 99.9209 127.24C99.9743 127.267 100.041 127.28 100.121 127.28C100.148 127.307 100.161 127.333 100.161 127.36C100.188 127.36 100.214 127.373 100.241 127.4C100.268 127.4 100.281 127.4 100.281 127.4C100.308 127.373 100.334 127.36 100.361 127.36C100.414 127.36 100.428 127.373 100.401 127.4C100.401 127.4 100.414 127.4 100.441 127.4H100.521C100.681 127.4 100.881 127.373 101.121 127.32C101.388 127.24 101.534 127.147 101.561 127.04C101.614 127.04 101.654 127 101.681 126.92C101.788 126.867 101.841 126.827 101.841 126.8C101.841 126.747 101.854 126.693 101.881 126.64L102.001 126.56C102.054 126.427 102.081 126.227 102.081 125.96C102.108 125.693 102.134 125.507 102.161 125.4C102.214 125.187 102.228 125.027 102.201 124.92C102.174 124.813 102.174 124.667 102.201 124.48C102.201 124.427 102.188 124.387 102.161 124.36C102.134 124.307 102.121 124.267 102.121 124.24V124.16C102.121 124.053 102.094 123.96 102.041 123.88C102.014 123.773 101.974 123.667 101.921 123.56L101.801 123.16C101.801 123.133 101.788 123.12 101.761 123.12C101.761 123.093 101.761 123.08 101.761 123.08C101.761 122.947 101.814 122.88 101.921 122.88C102.001 122.88 102.108 122.987 102.241 123.2L102.521 123.72C102.628 123.747 102.668 123.773 102.641 123.8C102.614 123.827 102.614 123.893 102.641 124L102.721 124.16V124.2C102.721 124.28 102.761 124.387 102.841 124.52C102.921 124.627 102.974 124.707 103.001 124.76C103.028 124.867 103.054 124.973 103.081 125.08C103.134 125.187 103.134 125.307 103.081 125.44L103.041 125.8C103.014 125.827 102.988 125.867 102.961 125.92C102.934 125.973 102.881 126.013 102.801 126.04C102.748 126.067 102.681 126.053 102.601 126C102.521 125.947 102.481 125.947 102.481 126C102.428 126.053 102.428 126.107 102.481 126.16C102.428 126.213 102.388 126.28 102.361 126.36C102.361 126.44 102.348 126.52 102.321 126.6C102.321 126.627 102.308 126.653 102.281 126.68C102.254 126.68 102.241 126.693 102.241 126.72C102.214 126.747 102.201 126.787 102.201 126.84C102.201 126.867 102.188 126.893 102.161 126.92C102.134 126.973 102.068 127.107 101.961 127.32C101.854 127.533 101.748 127.747 101.641 127.96C101.534 128.147 101.468 128.253 101.441 128.28L101.041 128.44C101.014 128.44 101.001 128.413 101.001 128.36C100.948 128.387 100.894 128.413 100.841 128.44C100.788 128.493 100.734 128.533 100.681 128.56H100.441C100.414 128.56 100.374 128.573 100.321 128.6C100.294 128.627 100.254 128.627 100.201 128.6H100.161L100.081 128.64C100.028 128.587 100.001 128.56 100.001 128.56C99.9743 128.533 99.9076 128.533 99.8009 128.56C99.7209 128.613 99.6276 128.64 99.5209 128.64ZM109.478 115.52C109.398 115.52 109.318 115.493 109.238 115.44C109.185 115.387 109.105 115.32 108.998 115.24C108.945 115.213 108.878 115.187 108.798 115.16C108.745 115.107 108.718 115.027 108.718 114.92C108.691 114.893 108.638 114.88 108.558 114.88C108.425 114.88 108.358 114.787 108.358 114.6C108.358 114.387 108.465 114.24 108.678 114.16L108.878 114V114.04L109.038 113.84H109.118C109.278 113.84 109.385 113.76 109.438 113.6C109.518 113.44 109.678 113.333 109.918 113.28C110.078 113.227 110.211 113.24 110.318 113.32C110.425 113.4 110.558 113.44 110.718 113.44C110.878 113.44 111.051 113.387 111.238 113.28L111.838 113.16C111.918 113.16 111.958 113.187 111.958 113.24C111.958 113.293 111.878 113.36 111.718 113.44C111.585 113.52 111.491 113.587 111.438 113.64L111.398 113.68L111.358 113.76L111.198 113.96C111.038 114.147 110.851 114.373 110.638 114.64C110.451 114.88 110.251 115.08 110.038 115.24C109.798 115.427 109.611 115.52 109.478 115.52ZM103.398 128.12C103.238 128.12 103.158 128.027 103.158 127.84C103.158 127.707 103.198 127.547 103.278 127.36C103.491 126.907 103.731 126.267 103.998 125.44C104.291 124.613 104.651 123.907 105.078 123.32C105.371 122.733 105.638 122.16 105.878 121.6C106.145 121.013 106.398 120.427 106.638 119.84C106.638 119.84 106.611 119.827 106.558 119.8C106.531 119.747 106.518 119.693 106.518 119.64C106.358 119.533 106.185 119.387 105.998 119.2C105.838 118.987 105.825 118.773 105.958 118.56C106.011 118.507 106.051 118.48 106.078 118.48C106.105 118.48 106.118 118.48 106.118 118.48C106.118 118.453 106.105 118.44 106.078 118.44C106.078 118.413 106.078 118.4 106.078 118.4C106.078 118.293 106.131 118.227 106.238 118.2C106.345 118.173 106.398 118.133 106.398 118.08C106.451 117.707 106.771 117.427 107.358 117.24C107.945 117.053 108.465 116.96 108.918 116.96C109.371 116.96 109.598 117.027 109.598 117.16C109.598 117.213 109.518 117.307 109.358 117.44C109.278 117.493 109.145 117.613 108.958 117.8C108.771 117.987 108.598 118.213 108.438 118.48L108.118 118.96C108.091 119.013 108.051 119.08 107.998 119.16C107.971 119.213 107.931 119.267 107.878 119.32C107.451 120.093 107.105 120.747 106.838 121.28C106.571 121.813 106.251 122.493 105.878 123.32C105.825 123.48 105.798 123.587 105.798 123.64C105.798 123.827 105.905 123.92 106.118 123.92C106.278 123.92 106.438 123.88 106.598 123.8L106.998 123.64C107.638 123.053 108.305 122.56 108.998 122.16C109.025 122.16 109.038 122.16 109.038 122.16C109.065 122.133 109.091 122.12 109.118 122.12C109.198 122.12 109.251 122.173 109.278 122.28C109.305 122.36 109.278 122.427 109.198 122.48C108.425 122.907 107.705 123.453 107.038 124.12C107.011 124.173 106.985 124.227 106.958 124.28C106.931 124.333 106.891 124.387 106.838 124.44C106.785 124.493 106.705 124.587 106.598 124.72C106.518 124.853 106.478 124.933 106.478 124.96C106.451 125.04 106.411 125.067 106.358 125.04C106.331 125.013 106.251 125.053 106.118 125.16C106.091 125.187 106.065 125.24 106.038 125.32C106.038 125.4 106.025 125.467 105.998 125.52C105.971 125.6 105.918 125.667 105.838 125.72C105.785 125.747 105.758 125.773 105.758 125.8C105.731 125.907 105.678 125.973 105.598 126C105.545 126 105.491 126.027 105.438 126.08C105.411 126.107 105.411 126.147 105.438 126.2C105.465 126.253 105.451 126.307 105.398 126.36C105.371 126.44 105.345 126.48 105.318 126.48C105.291 126.453 105.251 126.467 105.198 126.52C105.091 126.627 105.011 126.68 104.958 126.68C104.798 126.733 104.731 126.773 104.758 126.8C104.811 126.827 104.851 126.853 104.878 126.88C104.931 126.88 104.891 126.92 104.758 127C104.705 127.027 104.651 127.107 104.598 127.24C104.545 127.347 104.491 127.427 104.438 127.48C104.358 127.533 104.278 127.573 104.198 127.6C104.145 127.627 104.078 127.68 103.998 127.76C103.758 128 103.558 128.12 103.398 128.12ZM112.238 128.08C111.571 128.08 110.984 127.893 110.478 127.52C109.971 127.147 109.718 126.507 109.718 125.6C109.718 125.253 109.758 124.907 109.838 124.56C109.918 124.187 110.011 123.827 110.118 123.48C110.171 123.133 110.251 122.827 110.358 122.56C110.384 122.453 110.398 122.4 110.398 122.4C110.424 122.373 110.491 122.333 110.598 122.28L110.918 121.8V121.64C110.891 121.64 110.878 121.64 110.878 121.64C110.878 121.613 110.878 121.6 110.878 121.6C110.878 121.52 110.944 121.427 111.078 121.32C111.211 121.213 111.278 121.16 111.278 121.16C111.304 121.027 111.344 120.96 111.398 120.96C111.451 120.96 111.518 120.92 111.598 120.84H112.038V120.76C112.038 120.627 111.971 120.573 111.838 120.6C111.731 120.6 111.678 120.587 111.678 120.56C111.678 120.533 111.718 120.48 111.798 120.4C111.904 120.293 111.971 120.227 111.998 120.2C112.078 120.093 112.144 120 112.198 119.92C112.251 119.813 112.331 119.733 112.438 119.68C112.918 119.093 113.211 118.72 113.318 118.56C113.451 118.4 113.584 118.28 113.718 118.2C113.771 118.2 113.811 118.227 113.838 118.28C113.891 118.307 113.891 118.347 113.838 118.4C113.891 118.48 113.931 118.493 113.958 118.44C114.011 118.387 114.038 118.36 114.038 118.36L114.198 118.28C114.144 118.227 114.118 118.16 114.118 118.08C114.118 117.947 114.144 117.84 114.198 117.76C114.251 117.653 114.344 117.547 114.478 117.44C114.638 117.333 114.718 117.267 114.718 117.24C114.878 117.187 114.998 117.133 115.078 117.08C115.184 117.027 115.291 117 115.398 117C115.584 117 115.771 117.067 115.958 117.2C116.464 117.467 116.891 117.733 117.238 118C117.584 118.267 117.758 118.64 117.758 119.12C117.758 119.627 117.544 120.067 117.118 120.44C116.718 120.787 116.224 121.08 115.638 121.32C115.051 121.56 114.464 121.76 113.878 121.92C113.318 122.053 112.878 122.16 112.558 122.24C112.371 122.267 112.278 122.347 112.278 122.48C112.304 122.587 112.291 122.707 112.238 122.84L111.958 123.28L111.718 123.84L111.518 124.2C111.331 124.36 111.264 124.48 111.318 124.56C111.371 124.64 111.464 124.627 111.598 124.52C111.624 124.547 111.638 124.587 111.638 124.64C111.638 124.747 111.611 124.88 111.558 125.04C111.504 125.173 111.464 125.28 111.438 125.36C111.411 125.467 111.411 125.52 111.438 125.52C111.491 125.493 111.518 125.547 111.518 125.68L111.558 126.24C111.718 126.747 112.078 127.04 112.638 127.12C112.691 127.12 112.744 127.133 112.798 127.16C112.878 127.16 112.944 127.16 112.998 127.16C113.478 127.16 113.731 127.12 113.758 127.04C113.811 126.96 113.878 126.907 113.958 126.88C114.198 126.827 114.398 126.773 114.558 126.72C114.744 126.667 114.931 126.587 115.118 126.48C115.438 126.347 115.744 126.173 116.038 125.96C116.331 125.747 116.638 125.533 116.958 125.32L117.358 125.04C117.384 124.987 117.384 124.947 117.358 124.92C117.331 124.893 117.331 124.867 117.358 124.84C117.411 124.813 117.451 124.813 117.478 124.84C117.531 124.84 117.571 124.827 117.598 124.8C117.651 124.773 117.704 124.733 117.758 124.68C117.811 124.6 117.864 124.533 117.918 124.48C117.971 124.427 117.998 124.373 117.998 124.32C118.024 124.267 118.064 124.213 118.118 124.16C118.331 123.947 118.544 123.72 118.758 123.48C118.998 123.24 119.198 123.027 119.358 122.84C119.544 122.573 119.691 122.44 119.798 122.44C119.851 122.44 119.878 122.467 119.878 122.52C119.878 122.653 119.784 122.853 119.598 123.12C119.144 123.787 118.624 124.44 118.038 125.08C117.451 125.693 116.811 126.253 116.118 126.76C115.611 127.107 115.011 127.413 114.318 127.68C113.624 127.947 112.931 128.08 112.238 128.08ZM112.838 121.64C113.238 121.613 113.758 121.507 114.398 121.32C115.038 121.107 115.571 120.827 115.998 120.48C116.451 120.107 116.678 119.693 116.678 119.24C116.678 118.813 116.451 118.4 115.998 118C115.624 118.267 115.211 118.653 114.758 119.16C114.331 119.64 113.944 120.12 113.598 120.6C113.251 121.053 112.998 121.4 112.838 121.64Z" fill="url(#paint1_linear_5_17)"/>
<path d="M36.688 101.552C36.304 101.424 35.888 101.328 35.44 101.264C35.056 101.2 34.64 101.104 34.192 100.976L34.672 101.264C34.416 101.264 34.16 101.2 33.904 101.072C33.712 101.008 33.52 101.008 33.328 101.072L31.504 100.592L31.408 100.496C31.152 100.24 30.896 100.016 30.64 99.824C30.384 99.632 30.032 99.6 29.584 99.728C29.712 99.792 29.84 99.824 29.968 99.824C30.096 99.824 30.192 99.888 30.256 100.016H30.064C29.808 100.016 29.616 99.952 29.488 99.824C29.36 99.696 29.2 99.568 29.008 99.44C28.048 98.864 27.184 98.192 26.416 97.424V97.328C26.16 97.008 25.968 96.688 25.84 96.368C25.712 95.984 25.488 95.696 25.168 95.504H25.072C24.88 95.12 24.688 94.704 24.496 94.256C24.368 93.744 24.24 93.264 24.112 92.816C24.112 92.624 24.08 92.464 24.016 92.336C24.016 92.144 24.016 91.952 24.016 91.76C24.016 91.504 24.016 91.28 24.016 91.088C24.08 90.832 24.144 90.576 24.208 90.32C23.888 90.448 23.728 90.352 23.728 90.032C23.664 89.328 23.632 88.624 23.632 87.92C23.696 87.216 23.792 86.448 23.92 85.616L24.208 84.176C24.336 83.856 24.528 83.632 24.784 83.504C25.04 83.376 25.136 83.152 25.072 82.832C25.008 82.832 24.944 82.864 24.88 82.928C24.816 82.992 24.72 83.024 24.592 83.024C24.592 83.024 24.56 83.024 24.496 83.024C24.496 82.96 24.496 82.896 24.496 82.832H24.592V82.736C24.528 82.672 24.528 82.64 24.592 82.64C24.656 82.64 24.656 82.608 24.592 82.544V82.448C24.592 82.128 24.688 81.808 24.88 81.488C25.072 81.104 25.232 80.72 25.36 80.336C25.488 80.016 25.68 79.728 25.936 79.472C26.256 79.216 26.352 78.896 26.224 78.512H25.936C26.128 78.384 26.224 78.256 26.224 78.128L26.32 78.032L27.28 76.016H27.376C27.888 76.016 28.112 75.888 28.048 75.632C28.048 75.376 28.048 75.088 28.048 74.768V74.672L28.816 73.424C29.2 73.232 29.456 72.944 29.584 72.56C29.712 72.112 29.904 71.76 30.16 71.504C30.288 71.184 30.48 70.928 30.736 70.736C30.992 70.48 31.216 70.192 31.408 69.872C31.792 69.36 32.176 68.88 32.56 68.432C32.944 67.92 33.36 67.44 33.808 66.992C34.128 66.864 34.352 66.704 34.48 66.512C34.608 66.32 34.768 66.096 34.96 65.84C34.96 65.776 34.96 65.744 34.96 65.744C35.024 65.744 35.056 65.712 35.056 65.648C35.248 65.392 35.504 65.232 35.824 65.168C36.144 65.104 36.368 64.912 36.496 64.592C36.624 64.272 36.816 63.984 37.072 63.728C37.584 63.216 38.128 62.736 38.704 62.288C39.28 61.776 39.856 61.296 40.432 60.848C40.816 60.784 41.104 60.72 41.296 60.656C41.488 60.528 41.584 60.272 41.584 59.888H41.68C42.384 59.376 43.088 58.896 43.792 58.448C44.496 58 45.168 57.584 45.808 57.2C46.32 56.88 46.8 56.592 47.248 56.336C47.76 56.08 48.24 55.824 48.688 55.568H48.976C49.232 55.568 49.424 55.504 49.552 55.376C49.68 55.248 49.84 55.088 50.032 54.896H50.128C54.864 52.784 59.248 51.728 63.28 51.728C63.792 51.728 64.336 51.76 64.912 51.824C65.488 51.824 66.032 51.856 66.544 51.92C69.552 52.304 71.824 53.296 73.36 54.896C74.896 56.432 75.664 58.128 75.664 59.984C75.664 60.624 75.568 61.296 75.376 62C76.016 61.552 76.592 61.104 77.104 60.656C77.616 60.208 78.032 59.696 78.352 59.12C78.48 58.928 78.64 58.864 78.832 58.928C79.024 58.928 79.056 59.024 78.928 59.216C78.736 59.792 78.32 60.432 77.68 61.136C77.04 61.776 76.336 62.352 75.568 62.864C75.568 62.928 75.408 63.152 75.088 63.536C74.768 63.856 74.64 64.08 74.704 64.208C74.704 64.272 74.608 64.4 74.416 64.592C74.288 64.72 74.192 64.848 74.128 64.976L73.456 65.84C73.456 65.84 73.456 65.872 73.456 65.936C73.456 65.936 73.424 65.968 73.36 66.032C73.36 66.032 73.232 66.096 72.976 66.224C72.848 66.352 72.656 66.576 72.4 66.896C72.208 67.216 71.952 67.44 71.632 67.568L71.248 67.76C71.184 67.824 71.12 67.92 71.056 68.048C70.992 68.112 70.896 68.208 70.768 68.336C70.512 68.592 70.032 68.912 69.328 69.296C68.688 69.616 68.208 69.904 67.888 70.16C67.888 70.16 67.824 70.192 67.696 70.256C67.568 70.32 67.408 70.416 67.216 70.544L66.928 70.64C66.864 70.64 66.736 70.704 66.544 70.832C66.416 70.96 66.32 71.056 66.256 71.12C66.192 71.184 66.096 71.216 65.968 71.216C65.904 71.216 65.808 71.28 65.68 71.408C65.616 71.472 65.52 71.504 65.392 71.504C65.264 71.504 65.136 71.568 65.008 71.696L63.568 72.08C63.504 72.144 63.312 72.272 62.992 72.464C62.736 72.592 62.576 72.656 62.512 72.656H62.32C62.256 72.656 62.192 72.688 62.128 72.752C62.128 72.816 62.064 72.848 61.936 72.848C61.872 72.912 61.776 72.944 61.648 72.944C61.584 72.88 61.488 72.88 61.36 72.944C61.296 72.944 61.2 73.008 61.072 73.136C61.008 73.2 60.944 73.232 60.88 73.232H60.592L60.016 73.52C59.76 73.584 59.472 73.616 59.152 73.616C58.896 73.616 58.608 73.68 58.288 73.808C58.224 73.808 58.096 73.776 57.904 73.712C57.776 73.648 57.648 73.616 57.52 73.616C56.944 73.808 56.368 73.904 55.792 73.904C55.728 73.968 55.664 73.968 55.6 73.904C55.6 73.84 55.568 73.808 55.504 73.808C55.44 73.808 55.408 73.84 55.408 73.904C55.408 73.904 55.376 73.904 55.312 73.904C55.312 73.904 55.216 73.904 55.024 73.904C54.896 73.84 54.8 73.776 54.736 73.712H54.64C54.512 73.712 54.416 73.68 54.352 73.616C54.288 73.552 54.224 73.52 54.16 73.52C54.16 73.52 54.16 73.552 54.16 73.616C54.16 73.616 54.128 73.616 54.064 73.616C54 73.616 53.936 73.584 53.872 73.52C53.744 73.52 53.52 73.488 53.2 73.424C52.944 73.296 52.784 73.2 52.72 73.136C52.528 73.2 52.336 73.136 52.144 72.944C52.016 72.816 51.952 72.784 51.952 72.848L51.28 72.56C51.28 72.496 51.248 72.464 51.184 72.464C51.184 72.4 51.184 72.368 51.184 72.368H50.992C50.864 72.24 50.768 72.176 50.704 72.176C50.64 71.984 50.576 71.856 50.512 71.792C50.448 71.728 50.352 71.632 50.224 71.504C50.224 71.248 50.192 71.12 50.128 71.12C50.128 70.992 50.032 70.8 49.84 70.544C49.712 70.224 49.648 69.936 49.648 69.68L49.552 69.584C49.296 69.328 49.232 68.88 49.36 68.24C49.424 67.92 49.392 67.792 49.264 67.856C49.136 67.856 49.168 67.664 49.36 67.28L49.84 66.32C49.84 66.256 49.808 66.224 49.744 66.224C49.68 66.16 49.68 66.096 49.744 66.032C49.744 65.968 49.744 65.936 49.744 65.936C49.808 65.872 49.84 65.808 49.84 65.744C49.904 65.68 49.936 65.552 49.936 65.36C49.936 65.232 49.968 65.136 50.032 65.072C50.032 65.008 50.096 64.88 50.224 64.688C50.416 64.432 50.544 64.272 50.608 64.208L51.184 63.536C51.248 63.472 51.344 63.408 51.472 63.344C51.6 63.28 51.696 63.184 51.76 63.056C51.888 62.928 52.016 62.864 52.144 62.864C52.336 62.8 52.464 62.704 52.528 62.576C52.72 62.256 52.944 62.096 53.2 62.096H53.392C53.648 62.096 53.776 62.16 53.776 62.288C53.776 62.608 53.584 62.864 53.2 63.056C52.944 63.312 52.816 63.44 52.816 63.44C52.816 63.376 52.72 63.44 52.528 63.632C52.528 63.696 52.464 63.728 52.336 63.728C52.272 63.728 52.24 63.792 52.24 63.92C52.176 63.92 52.176 63.952 52.24 64.016C52.304 64.08 52.304 64.176 52.24 64.304C52.24 64.56 52.24 64.688 52.24 64.688C52.176 64.752 52.176 64.848 52.24 64.976C52.304 65.04 52.304 65.136 52.24 65.264C52.176 65.264 52.112 65.296 52.048 65.36L51.952 66.704C51.952 66.704 51.984 66.896 52.048 67.28C52.112 67.6 52.112 67.792 52.048 67.856V68.336C52.048 68.528 52.336 68.72 52.912 68.912C52.976 68.976 53.04 69.008 53.104 69.008C53.232 68.944 53.328 68.944 53.392 69.008C54.224 69.264 54.768 69.456 55.024 69.584C55.28 69.648 55.856 69.68 56.752 69.68H57.52C57.84 69.68 58.128 69.648 58.384 69.584C58.448 69.584 58.448 69.616 58.384 69.68C58.384 69.68 58.416 69.68 58.48 69.68L59.632 69.488C59.696 69.424 59.76 69.392 59.824 69.392C59.888 69.328 59.952 69.328 60.016 69.392C60.08 69.392 60.144 69.392 60.208 69.392L62.32 68.816C62.704 68.688 63.056 68.56 63.376 68.432C63.76 68.24 64.144 68.112 64.528 68.048C65.104 67.92 65.712 67.696 66.352 67.376C66.992 66.992 67.632 66.672 68.272 66.416C68.272 66.352 68.56 66.16 69.136 65.84C69.776 65.52 70.448 65.168 71.152 64.784L71.44 63.824C71.568 63.504 71.76 63.344 72.016 63.344C72.272 63.28 72.464 63.152 72.592 62.96C72.4 62.832 72.24 62.736 72.112 62.672C71.984 62.608 71.984 62.448 72.112 62.192V62.096L72.592 60.56C72.848 59.792 72.976 59.056 72.976 58.352C72.976 56.752 72.368 55.6 71.152 54.896C69.936 54.192 68.496 53.84 66.832 53.84C66.576 53.84 66.288 53.84 65.968 53.84C65.712 53.84 65.424 53.872 65.104 53.936C64.528 54 63.952 54.096 63.376 54.224C62.8 54.352 62.192 54.48 61.552 54.608H61.36C61.104 54.608 60.88 54.672 60.688 54.8C60.496 54.864 60.304 54.96 60.112 55.088C59.216 55.344 58.224 55.696 57.136 56.144C56.56 56.272 56.144 56.464 55.888 56.72C55.632 56.848 55.472 56.912 55.408 56.912V57.008C55.024 57.136 54.704 57.2 54.448 57.2C54.32 57.2 54.16 57.2 53.968 57.2C53.776 57.136 53.584 57.104 53.392 57.104C53.52 57.168 53.616 57.2 53.68 57.2C53.744 57.2 53.808 57.232 53.872 57.296C53.936 57.488 53.872 57.616 53.68 57.68C53.552 57.744 53.456 57.84 53.392 57.968H53.296C53.232 58.032 53.104 58.096 52.912 58.16C52.784 58.224 52.656 58.32 52.528 58.448C51.952 58.512 51.44 58.704 50.992 59.024C50.608 59.344 50.256 59.696 49.936 60.08H49.84L47.632 61.616C47.12 61.872 46.672 62.192 46.288 62.576C45.456 63.216 44.624 63.888 43.792 64.592C42.96 65.296 42.128 66 41.296 66.704H41.104C40.784 66.704 40.592 66.8 40.528 66.992C40.528 67.12 40.464 67.344 40.336 67.664H40.24C40.048 67.92 39.824 68.144 39.568 68.336C39.312 68.4 39.152 68.528 39.088 68.72C39.024 68.912 38.896 69.104 38.704 69.296L38.032 69.968C37.776 69.904 37.488 69.808 37.168 69.68C36.912 69.488 36.624 69.392 36.304 69.392C36.304 69.392 36.272 69.424 36.208 69.488C36.208 69.488 36.208 69.552 36.208 69.68C36.592 69.744 36.912 69.904 37.168 70.16C37.424 70.416 37.392 70.704 37.072 71.024L36.88 71.216C36.624 71.472 36.304 71.568 35.92 71.504C35.6 71.44 35.312 71.568 35.056 71.888C35.184 71.952 35.344 71.984 35.536 71.984C35.728 71.984 35.824 72.144 35.824 72.464C35.504 72.848 35.184 73.232 34.864 73.616C34.608 74 34.32 74.384 34 74.768C33.744 75.024 33.52 75.312 33.328 75.632C33.136 75.888 32.88 76.112 32.56 76.304C32.496 76.368 32.464 76.464 32.464 76.592C32.528 76.656 32.528 76.72 32.464 76.784V76.88L31.024 79.184C30.704 79.376 30.448 79.568 30.256 79.76C30.064 79.952 29.968 80.24 29.968 80.624C30.224 80.368 30.352 80.272 30.352 80.336V80.432C30.352 80.56 30.288 80.688 30.16 80.816C30.032 80.88 29.936 80.976 29.872 81.104L29.392 82.256C28.752 83.728 28.304 85.04 28.048 86.192C27.664 87.408 27.472 88.56 27.472 89.648C27.408 89.904 27.28 90.16 27.088 90.416C26.96 90.608 26.992 90.832 27.184 91.088C27.312 91.216 27.408 91.312 27.472 91.376C27.536 91.376 27.568 91.504 27.568 91.76C27.568 92.08 27.6 92.304 27.664 92.432V92.72C27.664 92.912 27.6 93.104 27.472 93.296C27.344 93.488 27.312 93.68 27.376 93.872C27.44 93.936 27.568 93.968 27.76 93.968C27.952 93.904 28.08 93.936 28.144 94.064L28.72 95.12C28.912 95.248 29.04 95.44 29.104 95.696C29.168 95.952 29.232 96.144 29.296 96.272C29.424 96.4 29.584 96.528 29.776 96.656C29.968 96.72 30.096 96.848 30.16 97.04C30.16 97.104 30.128 97.168 30.064 97.232C30.064 97.232 30.064 97.296 30.064 97.424C30.384 97.296 30.416 97.04 30.16 96.656C30.544 96.912 30.544 97.168 30.16 97.424C30.288 97.424 30.416 97.424 30.544 97.424C30.672 97.36 30.8 97.328 30.928 97.328C31.184 97.328 31.44 97.424 31.696 97.616C32.72 98.128 33.872 98.48 35.152 98.672C36.496 98.928 37.936 99.056 39.472 99.056C41.2 99.056 43.056 98.896 45.04 98.576C47.024 98.32 49.008 97.968 50.992 97.52V97.424C51.12 97.424 51.216 97.456 51.28 97.52C51.344 97.52 51.408 97.52 51.472 97.52C51.792 97.52 52.08 97.392 52.336 97.136L53.392 96.848C53.904 96.528 54.384 96.272 54.832 96.08C55.28 95.888 55.76 95.856 56.272 95.984C56.4 96.048 56.4 96.112 56.272 96.176C56.208 96.176 56.176 96.24 56.176 96.368C56.304 96.304 56.4 96.208 56.464 96.08C56.528 95.952 56.624 95.856 56.752 95.792L57.328 95.6C57.776 95.536 58.16 95.44 58.48 95.312C58.8 95.12 59.152 94.96 59.536 94.832L60.592 94.448C60.72 94.512 60.848 94.544 60.976 94.544C61.232 94.544 61.424 94.48 61.552 94.352C61.68 94.16 61.872 93.968 62.128 93.776C62.192 93.776 62.352 93.712 62.608 93.584C62.928 93.456 63.28 93.36 63.664 93.296C64.048 93.168 64.368 92.976 64.624 92.72H64.72C65.68 92.272 66.608 91.824 67.504 91.376C68.4 90.928 69.264 90.48 70.096 90.032L72.688 88.592C73.008 88.336 73.264 88.112 73.456 87.92C73.648 87.728 73.904 87.632 74.224 87.632L74.32 87.536C74.768 87.088 75.248 86.736 75.76 86.48C76.272 86.16 76.688 85.84 77.008 85.52C77.52 85.072 77.904 84.848 78.16 84.848C78.352 84.848 78.448 84.976 78.448 85.232C78.448 85.552 78.256 85.904 77.872 86.288C77.296 86.8 76.656 87.376 75.952 88.016C75.248 88.656 74.448 89.328 73.552 90.032C73.232 90.288 72.88 90.448 72.496 90.512C72.176 90.576 71.952 90.8 71.824 91.184C71.44 91.44 71.024 91.696 70.576 91.952C70.192 92.208 69.744 92.464 69.232 92.72C68.656 93.04 68.048 93.36 67.408 93.68C66.832 94 66.192 94.32 65.488 94.64C65.296 94.64 65.072 94.64 64.816 94.64C64.624 94.576 64.432 94.544 64.24 94.544C63.792 94.544 63.472 94.64 63.28 94.832C63.28 94.832 63.28 94.864 63.28 94.928C63.28 94.928 63.312 94.992 63.376 95.12C63.504 95.12 63.632 95.12 63.76 95.12C63.888 95.056 64.016 95.056 64.144 95.12C64.144 95.12 64.144 95.152 64.144 95.216C64.144 95.28 64.08 95.312 63.952 95.312C63.696 95.44 63.504 95.504 63.376 95.504V95.6L62.704 95.888H62.608C62.352 96.144 62.16 96.08 62.032 95.696C61.84 95.76 61.648 95.888 61.456 96.08C61.328 96.272 61.168 96.432 60.976 96.56L60.304 96.848C60.048 96.912 59.792 96.976 59.536 97.04C59.28 97.04 59.088 97.136 58.96 97.328H58.864C58.608 97.456 58.288 97.584 57.904 97.712C57.584 97.776 57.264 97.872 56.944 98V98.096H56.464C56.144 98.096 55.792 98.064 55.408 98C55.024 97.872 54.64 97.808 54.256 97.808C54.384 98 54.608 98.096 54.928 98.096C55.248 98.16 55.344 98.32 55.216 98.576C55.216 98.64 55.184 98.672 55.12 98.672L52.624 99.344V99.44C52.368 99.504 52.08 99.536 51.76 99.536C51.504 99.6 51.248 99.696 50.992 99.824C48.496 100.464 46.032 100.912 43.6 101.168C41.168 101.424 38.896 101.552 36.784 101.552H36.688ZM57.328 72.944C57.392 72.88 57.52 72.848 57.712 72.848C57.968 72.784 58.16 72.72 58.288 72.656L60.4 72.464C60.464 72.464 60.528 72.432 60.592 72.368C60.656 72.304 60.72 72.272 60.784 72.272C60.848 72.208 60.944 72.176 61.072 72.176C61.392 71.92 61.552 71.888 61.552 72.08C61.552 72.208 61.68 72.176 61.936 71.984C62 71.92 62.096 71.888 62.224 71.888C62.352 71.76 62.448 71.696 62.512 71.696C62.64 71.632 62.736 71.568 62.8 71.504C62.928 71.44 62.992 71.408 62.992 71.408C62.992 71.344 63.056 71.312 63.184 71.312H63.28C63.408 71.312 63.632 71.216 63.952 71.024C64.272 70.832 64.432 70.736 64.432 70.736C64.496 70.736 64.56 70.672 64.624 70.544C64.752 70.416 64.848 70.352 64.912 70.352C64.976 70.288 65.072 70.256 65.2 70.256C65.328 70.192 65.392 70.128 65.392 70.064C65.52 70 65.648 69.936 65.776 69.872C65.904 69.808 66 69.776 66.064 69.776C66.128 69.712 66.256 69.616 66.448 69.488C66.704 69.36 66.832 69.264 66.832 69.2C66.96 69.072 67.088 68.976 67.216 68.912C67.408 68.848 67.536 68.784 67.6 68.72C67.792 68.656 68.24 68.336 68.944 67.76C69.648 67.12 70.256 66.384 70.768 65.552C70.896 65.424 70.608 65.584 69.904 66.032C69.264 66.416 68.912 66.64 68.848 66.704C68.784 66.704 68.656 66.8 68.464 66.992C68.272 67.12 68.144 67.184 68.08 67.184L67.888 67.376H67.6L67.504 67.472C67.504 67.472 67.376 67.536 67.12 67.664C67.056 67.664 66.928 67.728 66.736 67.856C66.544 67.984 66.416 68.048 66.352 68.048C66.288 68.048 66.224 68.08 66.16 68.144C66.096 68.144 66.032 68.144 65.968 68.144C65.712 68.336 65.328 68.528 64.816 68.72C64.368 68.912 64.048 69.008 63.856 69.008H63.76C63.632 69.008 63.504 69.072 63.376 69.2L63.28 69.296L62.8 69.392C62.672 69.456 62.512 69.52 62.32 69.584C62.128 69.648 61.968 69.68 61.84 69.68C61.776 69.744 61.744 69.776 61.744 69.776C61.744 69.712 61.744 69.68 61.744 69.68C61.616 69.808 61.456 69.872 61.264 69.872C61.2 69.872 61.168 69.872 61.168 69.872C61.168 69.808 61.136 69.776 61.072 69.776C61.008 69.776 60.88 69.872 60.688 70.064H60.208C60.208 70.128 60.144 70.16 60.016 70.16H59.92C59.856 70.16 59.76 70.192 59.632 70.256C59.504 70.32 59.408 70.352 59.344 70.352C59.28 70.352 59.248 70.384 59.248 70.448C59.248 70.448 59.216 70.448 59.152 70.448C59.152 70.384 59.12 70.352 59.056 70.352H58.96L58.384 70.544H58.096C57.904 70.544 57.68 70.512 57.424 70.448C57.232 70.384 57.008 70.384 56.752 70.448C56.688 70.448 56.656 70.48 56.656 70.544C56.656 70.544 56.624 70.544 56.56 70.544H56.368C56.368 70.544 56.336 70.544 56.272 70.544C56.272 70.544 56.24 70.576 56.176 70.64C56.176 70.576 56.144 70.544 56.08 70.544H55.504C55.504 70.48 55.472 70.448 55.408 70.448C55.344 70.448 55.28 70.48 55.216 70.544C55.152 70.544 55.088 70.544 55.024 70.544C54.64 70.544 54.352 70.416 54.16 70.16C53.968 69.904 53.616 69.84 53.104 69.968C53.104 69.904 53.072 69.872 53.008 69.872C52.944 69.808 52.912 69.744 52.912 69.68H52.816C52.688 69.808 52.624 69.904 52.624 69.968C52.56 70.032 52.56 70.128 52.624 70.256C52.752 70.32 52.784 70.416 52.72 70.544C52.784 70.608 52.816 70.704 52.816 70.832C52.88 70.896 52.944 70.928 53.008 70.928C53.008 71.12 53.104 71.312 53.296 71.504C53.296 71.568 53.328 71.632 53.392 71.696C53.52 71.76 53.552 71.792 53.488 71.792C53.552 71.856 53.616 71.888 53.68 71.888C53.744 71.888 53.776 71.952 53.776 72.08L54.064 72.368H54.16C54.736 72.624 55.312 72.816 55.888 72.944C56.528 73.008 57.008 73.008 57.328 72.944ZM96.3363 105.104C95.5683 105.104 94.7683 105.008 93.9363 104.816C93.1683 104.688 92.3683 104.432 91.5363 104.048C91.0883 103.408 90.4803 103.088 89.7123 103.088C89.2643 102.576 88.7843 102.224 88.2723 102.032C87.8883 101.776 87.4723 101.392 87.0243 100.88C86.6403 100.368 86.2883 100.08 85.9683 100.016C85.2643 99.184 84.5923 98.32 83.9523 97.424C83.3123 96.528 82.7363 95.6 82.2243 94.64V94.448C82.2243 94 82.0643 93.648 81.7443 93.392C81.4883 93.136 81.2323 92.816 80.9763 92.432C80.7203 91.984 80.6563 91.536 80.7843 91.088C80.9123 90.576 80.7203 90.128 80.2083 89.744C80.0163 89.168 79.8883 88.528 79.8242 87.824C79.8242 87.12 79.6643 86.544 79.3443 86.096C79.2163 85.84 79.1523 85.68 79.1523 85.616C79.1523 85.36 79.2163 85.136 79.3443 84.944C79.4723 84.752 79.5683 84.528 79.6323 84.272C79.3123 84.208 79.1523 83.952 79.1523 83.504V83.216C79.1523 82.512 79.4403 81.968 80.0163 81.584C80.5923 81.2 81.2003 81.008 81.8403 81.008C82.8643 81.008 83.4723 81.392 83.6643 82.16L83.9523 83.216C83.6963 83.536 83.5683 83.792 83.5683 83.984C83.5683 84.176 83.7923 84.496 84.2403 84.944C84.3043 85.2 84.3363 85.552 84.3363 86C85.7443 88.176 87.6323 90.128 90.0003 91.856L90.0963 92.048C90.3523 92.24 90.5763 92.4 90.7682 92.528C90.9603 92.592 91.1843 92.688 91.4403 92.816C92.1443 93.264 92.5283 93.616 92.5923 93.872C92.7203 94.128 93.2643 94.256 94.2243 94.256C94.4163 94.256 94.5443 94.416 94.6083 94.736C94.7363 95.056 94.8963 95.28 95.0883 95.408C95.2803 95.472 95.5043 95.472 95.7603 95.408C96.0163 95.28 96.2403 95.28 96.4323 95.408C96.5603 95.472 96.6563 95.568 96.7203 95.696C96.8483 95.76 96.9443 95.824 97.0083 95.888C97.1363 95.952 97.7123 96.176 98.7363 96.56C99.7603 96.88 100.784 97.232 101.808 97.616C102.896 97.936 103.568 98.128 103.824 98.192C104.336 97.616 104.88 97.136 105.456 96.752C106.032 96.304 106.544 95.76 106.992 95.12C107.44 94.992 107.696 94.8 107.76 94.544C107.824 94.224 107.888 93.872 107.952 93.488C108.272 93.04 108.56 92.528 108.816 91.952C109.072 91.376 109.36 90.896 109.68 90.512C110.384 89.68 110.8 88.784 110.928 87.824C111.12 86.864 111.472 86.064 111.984 85.424C112.112 85.296 112.304 85.168 112.56 85.04C112.88 84.912 113.04 84.784 113.04 84.656V84.56C113.04 83.92 113.168 83.28 113.424 82.64C113.744 81.936 114.032 81.264 114.288 80.624C114.544 80.368 114.704 80.08 114.768 79.76C114.896 79.376 115.056 79.056 115.248 78.8C115.504 78.544 115.696 78.32 115.824 78.128C116.016 77.936 116.08 77.648 116.016 77.264L116.208 75.92C116.208 75.6 116.272 75.216 116.4 74.768C116.592 74.256 116.72 73.84 116.784 73.52C116.912 72.88 117.104 72.112 117.36 71.216C117.616 70.256 117.872 69.52 118.128 69.008C118.576 68.176 118.896 67.312 119.088 66.416C119.28 65.456 119.504 64.56 119.76 63.728C120.208 63.472 120.432 63.056 120.432 62.48C120.56 62.224 120.72 61.616 120.912 60.656C121.104 59.696 121.2 59.088 121.2 58.832C121.008 58.832 120.784 58.768 120.528 58.64C120.336 58 120.4 57.264 120.72 56.432C121.04 55.536 121.456 54.672 121.968 53.84C122.48 53.008 122.864 52.336 123.12 51.824C123.568 51.12 124.112 50.512 124.752 50C125.392 49.424 126.16 49.136 127.056 49.136C127.376 49.136 127.728 49.168 128.112 49.232C128.496 49.232 128.784 49.36 128.976 49.616C129.808 49.936 130.224 50.416 130.224 51.056C130.224 51.504 130.064 52.048 129.744 52.688C129.424 53.264 129.2 53.84 129.072 54.416C128.304 54.736 127.856 55.536 127.728 56.816C127.664 58.032 127.536 58.992 127.344 59.696C127.28 60.016 127.152 60.272 126.96 60.464C126.768 60.656 126.832 60.944 127.152 61.328V61.904L126.864 62.096L127.248 62.768C127.248 62.96 127.248 63.376 127.248 64.016C127.312 64.592 127.376 65.168 127.44 65.744C127.504 66.256 127.504 66.544 127.44 66.608C127.376 66.736 127.248 66.8 127.056 66.8C126.672 66.8 126.416 66.64 126.288 66.32C126.096 65.808 126 65.232 126 64.592C126.064 63.952 125.904 63.376 125.52 62.864C125.456 62.672 125.424 62.48 125.424 62.288C125.424 62.096 125.424 61.968 125.424 61.904C125.424 61.648 125.424 61.456 125.424 61.328C125.488 61.2 125.52 61.104 125.52 61.04C125.52 60.912 125.264 60.464 124.752 59.696V58.736C124.048 59.632 123.536 60.528 123.216 61.424C122.896 61.68 122.704 62 122.64 62.384C122.576 62.768 122.48 63.12 122.352 63.44C121.712 65.104 121.072 66.768 120.432 68.432C119.856 70.096 119.28 71.76 118.704 73.424C118.256 73.68 118.032 74.032 118.032 74.48C118.032 74.864 117.968 75.248 117.84 75.632L116.016 80.624C115.568 80.752 115.344 80.976 115.344 81.296C115.408 81.552 115.44 81.84 115.44 82.16C115.44 82.608 115.312 83.024 115.056 83.408C114.864 83.728 114.704 84.08 114.576 84.464C113.68 86.96 112.592 89.488 111.312 92.048C110.096 94.608 108.656 96.944 106.992 99.056C107.888 99.248 108.752 99.408 109.584 99.536C110.416 99.728 111.248 99.888 112.08 100.016C112.912 100.144 113.936 100.272 115.152 100.4C116.432 100.528 117.392 100.656 118.032 100.784C118.736 100.912 119.504 101.008 120.336 101.072C121.168 101.136 121.936 101.168 122.64 101.168H123.312C123.568 101.168 123.76 101.168 123.888 101.168C124.08 101.232 124.336 101.328 124.656 101.456C124.784 101.52 124.912 101.488 125.04 101.36C125.168 101.296 125.296 101.264 125.424 101.264C125.744 101.2 126.064 101.168 126.384 101.168C126.704 101.232 126.992 101.264 127.248 101.264C127.376 101.2 127.536 101.168 127.728 101.168C127.984 101.168 128.208 101.2 128.4 101.264C128.656 101.392 128.88 101.456 129.072 101.456C129.392 101.456 129.648 101.392 129.84 101.264C130.032 101.2 130.256 101.168 130.512 101.168C130.832 101.424 131.12 101.552 131.376 101.552C131.632 101.552 131.888 101.392 132.144 101.072C132.848 101.008 133.68 100.88 134.64 100.688C135.664 100.496 136.08 99.856 135.888 98.768C135.824 98.256 135.728 97.936 135.6 97.808C135.472 97.68 135.248 97.456 134.928 97.136C134.672 96.944 134.448 96.688 134.256 96.368C134.064 96.048 133.808 95.856 133.488 95.792C133.36 95.664 133.296 95.472 133.296 95.216C133.296 94.832 133.52 94.64 133.968 94.64C134.224 94.64 134.48 94.768 134.736 95.024C134.992 95.152 135.152 95.344 135.216 95.6C135.344 95.856 135.536 96.08 135.792 96.272C135.92 96.528 136.144 96.72 136.464 96.848C136.784 96.976 137.072 97.168 137.328 97.424C138.032 98.448 138.384 99.376 138.384 100.208C138.384 101.424 137.84 102.448 136.752 103.28C135.664 104.112 134.384 104.56 132.912 104.624C132.784 104.496 132.592 104.432 132.336 104.432C132.08 104.432 131.856 104.464 131.664 104.528C131.536 104.592 131.344 104.624 131.088 104.624C129.872 104.56 128.624 104.432 127.344 104.24C126.064 104.048 124.816 103.888 123.6 103.76C123.472 103.76 123.344 103.728 123.216 103.664C123.088 103.664 122.96 103.664 122.832 103.664C122.384 103.344 121.808 103.184 121.104 103.184C120.464 103.184 119.888 103.12 119.376 102.992C119.184 102.928 118.736 102.832 118.032 102.704C117.392 102.576 116.752 102.448 116.112 102.32C115.536 102.192 115.184 102.16 115.056 102.224C114.352 102.096 113.616 101.904 112.848 101.648C112.144 101.456 111.44 101.328 110.736 101.264C109.968 101.136 109.168 100.944 108.336 100.688C107.568 100.496 106.8 100.304 106.032 100.112C104.624 101.648 103.12 102.864 101.52 103.76C99.9203 104.656 98.1923 105.104 96.3363 105.104ZM95.6643 103.472C97.2643 103.472 98.6083 103.056 99.6963 102.224C100.848 101.392 101.936 100.4 102.96 99.248C102.32 99.12 101.68 98.96 101.04 98.768C100.4 98.576 99.7603 98.352 99.1203 98.096C98.5443 97.84 98.0323 97.648 97.5843 97.52C97.2003 97.328 96.6883 97.168 96.0483 97.04C95.7923 96.976 95.5043 96.88 95.1843 96.752C94.8643 96.624 94.5443 96.528 94.2243 96.464C93.7763 96.272 93.3603 96.016 92.9763 95.696C92.5923 95.312 92.1443 95.184 91.6323 95.312C91.3123 95.184 90.9603 95.056 90.5763 94.928C90.2563 94.8 89.9363 94.64 89.6163 94.448C89.2963 94.192 89.0723 93.968 88.9443 93.776C88.8163 93.52 88.4963 93.456 87.9843 93.584L87.2163 93.2C86.9603 92.944 86.7363 92.688 86.5443 92.432C86.4163 92.176 86.1283 92.048 85.6803 92.048C85.1683 92.048 84.5923 91.76 83.9523 91.184C83.3123 90.544 82.8323 90 82.5123 89.552C82.8323 90.384 83.1523 91.184 83.4723 91.952C83.7923 92.72 84.1123 93.488 84.4323 94.256C84.5603 94.704 84.7203 95.088 84.9123 95.408C85.1683 95.664 85.2323 96.016 85.1043 96.464C85.1043 96.592 85.2643 96.752 85.5843 96.944C85.9043 97.072 86.1923 97.328 86.4483 97.712C86.5763 98.224 86.7363 98.512 86.9283 98.576C87.1203 98.64 87.3123 98.832 87.5043 99.152C88.0163 99.728 88.3043 100.176 88.3683 100.496C88.4323 100.816 89.0083 101.04 90.0963 101.168L90.9603 101.744C91.2163 102.192 91.5043 102.416 91.8243 102.416C92.1443 102.48 92.4963 102.576 92.8803 102.704C93.3923 102.832 93.8403 102.992 94.2243 103.184C94.6723 103.376 95.1523 103.472 95.6643 103.472Z" fill="url(#paint2_linear_5_17)"/>
<defs>
<linearGradient id="paint0_linear_5_17" x1="81" y1="0" x2="81" y2="162" gradientUnits="userSpaceOnUse">
<stop stop-color="#7B7B7B"/>
<stop offset="1"/>
</linearGradient>
<linearGradient id="paint1_linear_5_17" x1="81" y1="98" x2="81" y2="144" gradientUnits="userSpaceOnUse">
<stop stop-color="#FF0000"/>
<stop offset="1" stop-color="#A30101"/>
</linearGradient>
<linearGradient id="paint2_linear_5_17" x1="81" y1="26" x2="81" y2="136" gradientUnits="userSpaceOnUse">
<stop stop-color="white"/>
<stop offset="1"/>
</linearGradient>
</defs>
</svg>
